<?xml version="1.0" encoding="UTF-8" standalone="no"?>
<svg
   xmlns:dc="http://purl.org/dc/elements/1.1/"
   xmlns:cc="http://creativecommons.org/ns#"
   xmlns:rdf="http://www.w3.org/1999/02/22-rdf-syntax-ns#"
   xmlns:svg="http://www.w3.org/2000/svg"
   xmlns="http://www.w3.org/2000/svg"
   viewBox="0 0 356.98758 102.71719"
   height="102.71719"
   width="356.98758"
   xml:space="preserve"
   version="1.1"
   id="svg2"><metadata
     id="metadata8"><rdf:RDF><cc:Work
         rdf:about=""><dc:format>image/svg+xml</dc:format><dc:type
           rdf:resource="http://purl.org/dc/dcmitype/StillImage" /><dc:title></dc:title></cc:Work></rdf:RDF></metadata><defs
     id="defs6"><clipPath
       id="clipPath16"
       clipPathUnits="userSpaceOnUse"><path
         id="path18"
         d="m 0,839.058 612.288,0 L 612.288,0 0,0 0,839.058 Z" /></clipPath><clipPath
       id="clipPath104"
       clipPathUnits="userSpaceOnUse"><path
         id="path106"
         d="m 214.481,438.826 c -22.736,-2.124 -40.357,-12.495 -39.363,-23.176 l 0,0 c 0.116,-1.258 0.637,-5.979 0.75,-7.179 l 0,0 c 1.01,-10.78 20.253,-17.806 42.989,-15.682 l 0,0 c 22.74,2.114 40.359,12.581 39.349,23.367 l 0,0 c -0.117,1.267 -0.638,5.987 -0.749,7.168 l 0,0 c -0.874,9.386 -15.833,15.884 -34.87,15.884 l 0,0 c -2.633,0 -5.343,-0.124 -8.106,-0.382 m -35.777,-29.439 c -0.898,9.6 15.565,18.982 36.772,20.965 l 0,0 c 21.203,1.977 39.117,-4.206 40.013,-13.805 l 0,0 c 0.892,-9.603 -15.569,-18.986 -36.772,-20.964 l 0,0 c -2.665,-0.248 -5.28,-0.368 -7.814,-0.368 l 0,0 c -17.624,0 -31.421,5.782 -32.199,14.172" /></clipPath><clipPath
       id="clipPath112"
       clipPathUnits="userSpaceOnUse"><path
         id="path114"
         d="m -32768,32767 65535,0 0,-65535 -65535,0 0,65535 z" /></clipPath><linearGradient
       id="linearGradient116"
       spreadMethod="pad"
       gradientTransform="matrix(83.169342,0,0,-83.169342,175.33887,415.80957)"
       gradientUnits="userSpaceOnUse"
       y2="0"
       x2="1"
       y1="0"
       x1="0"><stop
         id="stop118"
         offset="0"
         style="stop-opacity:1;stop-color:#ffffff" /><stop
         id="stop120"
         offset="0.4394981"
         style="stop-opacity:1;stop-color:#ffffff" /><stop
         id="stop122"
         offset="0.55"
         style="stop-opacity:0;stop-color:#ffffff" /><stop
         id="stop124"
         offset="0.70599723"
         style="stop-opacity:0;stop-color:#ffffff" /><stop
         id="stop126"
         offset="0.82"
         style="stop-opacity:0;stop-color:#ffffff" /><stop
         id="stop128"
         offset="0.90079352"
         style="stop-opacity:1;stop-color:#ffffff" /><stop
         id="stop130"
         offset="0.95"
         style="stop-opacity:1;stop-color:#ffffff" /><stop
         id="stop132"
         offset="1"
         style="stop-opacity:1;stop-color:#ffffff" /></linearGradient><mask
       id="mask134"
       height="1"
       width="1"
       y="0"
       x="0"
       maskUnits="userSpaceOnUse"><g
         id="g136"><g
           id="g138"
           clip-path="url(#clipPath112)"><g
             id="g140"><g
               id="g142"><path
                 id="path144"
                 style="fill:url(#linearGradient116);stroke:none"
                 d="m -32768,32767 65535,0 0,-65535 -65535,0 0,65535 z" /></g></g></g></g></mask><linearGradient
       id="linearGradient150"
       spreadMethod="pad"
       gradientTransform="matrix(83.169342,0,0,-83.169342,175.33887,415.80957)"
       gradientUnits="userSpaceOnUse"
       y2="0"
       x2="1"
       y1="0"
       x1="0"><stop
         id="stop152"
         offset="0"
         style="stop-opacity:1;stop-color:#bfa74a" /><stop
         id="stop154"
         offset="0.4394981"
         style="stop-opacity:1;stop-color:#bfa74a" /><stop
         id="stop156"
         offset="0.55"
         style="stop-opacity:1;stop-color:#ffffff" /><stop
         id="stop158"
         offset="0.70599723"
         style="stop-opacity:1;stop-color:#ffffff" /><stop
         id="stop160"
         offset="0.82"
         style="stop-opacity:1;stop-color:#ffffff" /><stop
         id="stop162"
         offset="0.90079352"
         style="stop-opacity:1;stop-color:#bfa74a" /><stop
         id="stop164"
         offset="0.95"
         style="stop-opacity:1;stop-color:#bfa74a" /><stop
         id="stop166"
         offset="1"
         style="stop-opacity:1;stop-color:#bfa74a" /></linearGradient><clipPath
       id="clipPath174"
       clipPathUnits="userSpaceOnUse"><path
         id="path176"
         d="m 0,839.058 612.288,0 L 612.288,0 0,0 0,839.058 Z" /></clipPath><clipPath
       id="clipPath186"
       clipPathUnits="userSpaceOnUse"><path
         id="path188"
         d="m 179.82,470.999 c -0.858,-0.953 -3.98,-4.523 -4.774,-5.407 l 0,0 c -7.198,-7.953 0.686,-26.822 17.625,-42.141 l 0,0 c 16.938,-15.324 36.494,-21.298 43.695,-13.342 l 0,0 c 0.842,0.937 3.974,4.512 4.774,5.399 l 0,0 c 7.272,8.034 -0.565,26.973 -17.497,42.288 l 0,0 c -11.805,10.68 -24.918,16.788 -34.239,16.788 l 0,0 c -4.05,10e-4 -7.384,-1.153 -9.584,-3.585 m 18.431,-41.088 c -15.799,14.288 -23.351,31.672 -16.886,38.811 l 0,0 c 6.468,7.148 24.516,1.37 40.313,-12.919 l 0,0 c 15.784,-14.292 23.344,-31.672 16.877,-38.821 l 0,0 c -1.882,-2.079 -4.742,-3.064 -8.24,-3.065 l 0,0 c -8.533,0 -20.864,5.86 -32.064,15.994" /></clipPath><clipPath
       id="clipPath194"
       clipPathUnits="userSpaceOnUse"><path
         id="path196"
         d="m -32768,32767 65535,0 0,-65535 -65535,0 0,65535 z" /></clipPath><linearGradient
       id="linearGradient198"
       spreadMethod="pad"
       gradientTransform="matrix(-57.314968,67.03611,67.03611,57.314968,237.05371,406.82031)"
       gradientUnits="userSpaceOnUse"
       y2="0"
       x2="1"
       y1="0"
       x1="0"><stop
         id="stop200"
         offset="0"
         style="stop-opacity:1;stop-color:#ffffff" /><stop
         id="stop202"
         offset="0.15981749"
         style="stop-opacity:1;stop-color:#ffffff" /><stop
         id="stop204"
         offset="0.2"
         style="stop-opacity:0;stop-color:#ffffff" /><stop
         id="stop206"
         offset="0.25777675"
         style="stop-opacity:0;stop-color:#ffffff" /><stop
         id="stop208"
         offset="0.3"
         style="stop-opacity:0;stop-color:#ffffff" /><stop
         id="stop210"
         offset="0.44063878"
         style="stop-opacity:1;stop-color:#ffffff" /><stop
         id="stop212"
         offset="1"
         style="stop-opacity:1;stop-color:#ffffff" /></linearGradient><mask
       id="mask214"
       height="1"
       width="1"
       y="0"
       x="0"
       maskUnits="userSpaceOnUse"><g
         id="g216"><g
           id="g218"
           clip-path="url(#clipPath194)"><g
             id="g220"><g
               id="g222"><path
                 id="path224"
                 style="fill:url(#linearGradient198);stroke:none"
                 d="m -32768,32767 65535,0 0,-65535 -65535,0 0,65535 z" /></g></g></g></g></mask><linearGradient
       id="linearGradient230"
       spreadMethod="pad"
       gradientTransform="matrix(-57.314968,67.03611,67.03611,57.314968,237.05371,406.82031)"
       gradientUnits="userSpaceOnUse"
       y2="0"
       x2="1"
       y1="0"
       x1="0"><stop
         id="stop232"
         offset="0"
         style="stop-opacity:1;stop-color:#bfa74a" /><stop
         id="stop234"
         offset="0.15981749"
         style="stop-opacity:1;stop-color:#bfa74a" /><stop
         id="stop236"
         offset="0.2"
         style="stop-opacity:1;stop-color:#ffffff" /><stop
         id="stop238"
         offset="0.25777675"
         style="stop-opacity:1;stop-color:#ffffff" /><stop
         id="stop240"
         offset="0.3"
         style="stop-opacity:1;stop-color:#ffffff" /><stop
         id="stop242"
         offset="0.44063878"
         style="stop-opacity:1;stop-color:#bfa74a" /><stop
         id="stop244"
         offset="1"
         style="stop-opacity:1;stop-color:#bfa74a" /></linearGradient><clipPath
       id="clipPath252"
       clipPathUnits="userSpaceOnUse"><path
         id="path254"
         d="m 0,839.058 612.288,0 L 612.288,0 0,0 0,839.058 Z" /></clipPath><clipPath
       id="clipPath264"
       clipPathUnits="userSpaceOnUse"><path
         id="path266"
         d="m 224.853,456.664 c -0.021,-0.016 1.377,-1.368 1.409,-1.347 l 0,0 c 11.575,6.928 23.334,8.52 26.815,3.432 l 0,0 c 3.663,-5.35 -3.19,-16.032 -15.297,-23.876 l 0,0 c -6.748,-4.372 -13.712,-6.928 -19.184,-7.421 l 0,0 -0.123,-5.113 c 6.177,-0.101 14.579,2.645 22.66,7.875 l 0,0 c 12.983,8.406 20.214,20.042 16.146,25.993 l 0,0 c -0.485,0.701 -2.332,3.303 -2.791,3.968 l 0,0 c -1.612,2.354 -4.721,3.486 -8.689,3.486 l 0,0 c -5.811,0 -13.462,-2.427 -20.946,-6.997" /></clipPath><clipPath
       id="clipPath272"
       clipPathUnits="userSpaceOnUse"><path
         id="path274"
         d="m -32768,32767 65535,0 0,-65535 -65535,0 0,65535 z" /></clipPath><linearGradient
       id="linearGradient276"
       spreadMethod="pad"
       gradientTransform="matrix(-49.983543,-26.171774,-27.043543,48.719475,257.21582,456.05176)"
       gradientUnits="userSpaceOnUse"
       y2="0"
       x2="1"
       y1="0"
       x1="0"><stop
         id="stop278"
         offset="0"
         style="stop-opacity:1;stop-color:#ffffff" /><stop
         id="stop280"
         offset="0.67922434"
         style="stop-opacity:1;stop-color:#ffffff" /><stop
         id="stop282"
         offset="0.85"
         style="stop-opacity:0;stop-color:#ffffff" /><stop
         id="stop284"
         offset="0.93774444"
         style="stop-opacity:0;stop-color:#ffffff" /><stop
         id="stop286"
         offset="1"
         style="stop-opacity:0;stop-color:#ffffff" /></linearGradient><mask
       id="mask288"
       height="1"
       width="1"
       y="0"
       x="0"
       maskUnits="userSpaceOnUse"><g
         id="g290"><g
           id="g292"
           clip-path="url(#clipPath272)"><g
             id="g294"><g
               id="g296"><path
                 id="path298"
                 style="fill:url(#linearGradient276);stroke:none"
                 d="m -32768,32767 65535,0 0,-65535 -65535,0 0,65535 z" /></g></g></g></g></mask><linearGradient
       id="linearGradient304"
       spreadMethod="pad"
       gradientTransform="matrix(-49.983543,-26.171774,-27.043543,48.719475,257.21582,456.05176)"
       gradientUnits="userSpaceOnUse"
       y2="0"
       x2="1"
       y1="0"
       x1="0"><stop
         id="stop306"
         offset="0"
         style="stop-opacity:1;stop-color:#bfa74a" /><stop
         id="stop308"
         offset="0.67922434"
         style="stop-opacity:1;stop-color:#bfa74a" /><stop
         id="stop310"
         offset="0.85"
         style="stop-opacity:1;stop-color:#ffffff" /><stop
         id="stop312"
         offset="0.93774444"
         style="stop-opacity:1;stop-color:#ffffff" /><stop
         id="stop314"
         offset="1"
         style="stop-opacity:1;stop-color:#ffffff" /></linearGradient></defs><g
     transform="matrix(1.25,0,0,-1.25,-215.47643,593.23)"
     id="g10"><g
       id="g12"><g
         clip-path="url(#clipPath16)"
         id="g14"><g
           transform="translate(312.1895,443.3364)"
           id="g20"><path
             id="path22"
             style="fill:#656263;fill-opacity:1;fill-rule:evenodd;stroke:none"
             d="m 0,0 c 0,-1.56 -1.246,-2.815 -2.807,-2.815 l -6.915,0 0,13.616 9.722,0 L 0,0 Z m -15.219,-2.815 -9.306,0 0,13.616 9.306,0 0,-13.616 z m 5.497,16.607 0,6.386 -5.497,0 0,-6.386 -14.442,0 0,-19.593 14.442,0 0,-12.071 5.497,0 0,12.071 7.839,0 c 3.943,0 7.155,3.197 7.146,7.148 l 0,12.445 -14.985,0 z" /></g><g
           transform="translate(359.8447,431.7456)"
           id="g24"><path
             id="path26"
             style="fill:#656263;fill-opacity:1;fill-rule:evenodd;stroke:none"
             d="m 0,0 c 0,-1.554 -1.251,-2.817 -2.806,-2.817 l -22.229,0 0,31.152 L 0,28.335 0,0 Z m -30.108,31.317 0,-37.115 28.04,0 c 3.95,0 7.161,3.19 7.153,7.135 l 0,29.98 -35.193,0 z" /></g><g
           transform="translate(345.0967,445.9409)"
           id="g28"><path
             id="path30"
             style="fill:#656263;fill-opacity:1;fill-rule:evenodd;stroke:none"
             d="m 0,0 -6.82,0 0,2.977 6.82,0 0,5.232 -6.82,0 0,2.985 18.127,0 0,-2.985 -6.827,0 0,-5.232 6.827,0 0,-2.977 -6.827,0 0,-11.088 6.827,0 0,-2.976 -18.127,0 0,2.976 6.82,0 L 0,0 Z" /></g><g
           transform="translate(353.3145,436.8213)"
           id="g32"><path
             id="path34"
             style="fill:#656263;fill-opacity:1;fill-rule:evenodd;stroke:none"
             d="m 0,0 -2.45,7.146 3.532,0 L 3.554,0 0,0 Z" /></g><g
           transform="translate(391.9346,428.9282)"
           id="g36"><path
             id="path38"
             style="fill:#656263;fill-opacity:1;fill-rule:evenodd;stroke:none"
             d="m 0,0 0,14.216 -8.986,0 0,2.984 8.986,0 0,5.683 -6.821,0 0,2.98 19.124,0 0,-2.98 -6.817,0 0,-5.683 8.894,0 0,-2.984 -8.894,0 0,-14.216 0.91,0 5.117,9.965 4.708,0 L 11.092,0 l 6.699,0 0,-2.98 -30.103,0 0,2.98 L 0,0 Z" /></g><g
           transform="translate(381.1064,438.8936)"
           id="g40"><path
             id="path42"
             style="fill:#656263;fill-opacity:1;fill-rule:evenodd;stroke:none"
             d="m 0,0 4.254,0 4.102,-7.976 -4.258,0 L 0,0 Z" /></g><g
           transform="translate(382.9639,463.0625)"
           id="g44"><path
             id="path46"
             style="fill:#656263;fill-opacity:1;fill-rule:evenodd;stroke:none"
             d="m 0,0 19.137,0 c 3.404,0 5.246,-2.192 6.744,-4.927 l 5.284,-10.248 -5.176,0 -5.041,10.015 c -0.552,1.123 -1.677,2.179 -3.436,2.179 l -14.052,0 -6.126,-12.194 -5.153,0 L 0,0 Z" /></g><g
           transform="translate(452.2012,463.4248)"
           id="g48"><path
             id="path50"
             style="fill:#656263;fill-opacity:1;fill-rule:nonzero;stroke:none"
             d="M 0,0 4.809,0.003 4.64,-0.335 C 3.615,-2.422 1.622,-3.82 -1.106,-3.82 l -6.594,0 0,-4.813 13.47,0 0,-16.486 c 0,-3.951 -3.205,-7.15 -7.154,-7.15 l -1.394,0 0,2.98 0.237,0 c 1.587,0 3.061,1.292 3.061,2.828 l 0,14.847 -8.22,0 0,-26.346 -5.434,0 0,26.346 -8.227,0 0,-19.186 -5.247,0 0,22.167 13.474,0 0,4.813 -11.709,0 0,2.987 22.572,0 c 1.096,0 1.813,0.374 2.271,0.833" /></g><g
           transform="translate(291.7959,407.1084)"
           id="g52"><path
             id="path54"
             style="fill:#231f20;fill-opacity:1;fill-rule:nonzero;stroke:none"
             d="m 0,0 -0.723,-1.395 c -0.827,0.47 -1.633,0.706 -2.418,0.706 -1.202,0 -2.18,-0.38 -2.927,-1.144 -0.744,-0.766 -1.121,-1.775 -1.121,-3.028 0,-1.229 0.377,-2.243 1.133,-3.041 0.749,-0.797 1.744,-1.199 2.993,-1.199 0.833,0 1.626,0.201 2.374,0.608 l 0.593,-1.374 c -0.995,-0.545 -2.1,-0.821 -3.298,-0.821 -1.81,0 -3.288,0.535 -4.448,1.601 -1.166,1.067 -1.746,2.441 -1.746,4.126 0,1.683 0.596,3.083 1.779,4.191 1.183,1.111 2.675,1.666 4.477,1.666 C -2.174,0.896 -1.057,0.593 0,0" /></g><g
           transform="translate(304.8413,396.6123)"
           id="g56"><path
             id="path58"
             style="fill:#231f20;fill-opacity:1;fill-rule:nonzero;stroke:none"
             d="m 0,0 -2.234,0 0,5.391 -4.702,0 0,-5.391 -2.243,0 0,11.198 2.243,0 0,-4.269 4.702,0 0,4.269 2.234,0 L 0,0 Z" /></g><path
           id="path60"
           style="fill:#231f20;fill-opacity:1;fill-rule:nonzero;stroke:none"
           d="m 311.141,396.612 -2.241,0 0,11.198 2.241,0 0,-11.198 z" /><g
           transform="translate(324.8633,396.6123)"
           id="g62"><path
             id="path64"
             style="fill:#231f20;fill-opacity:1;fill-rule:nonzero;stroke:none"
             d="m 0,0 -1.486,0 -6.051,7.792 0,-7.792 -1.789,0 0,11.198 1.502,0 6.019,-7.792 0,7.792 1.805,0 L 0,0 Z" /></g><g
           transform="translate(334.5537,401.0254)"
           id="g66"><path
             id="path68"
             style="fill:#231f20;fill-opacity:1;fill-rule:nonzero;stroke:none"
             d="M 0,0 -1.473,4.326 -3.101,0 0,0 Z m 3.902,-4.413 -2.407,0 -1.049,3.056 -4.029,0 -1.168,-3.056 -1.855,0 4.57,11.198 1.729,0 4.209,-11.198 z" /></g><g
           transform="translate(361.7266,397.1094)"
           id="g70"><path
             id="path72"
             style="fill:#231f20;fill-opacity:1;fill-rule:nonzero;stroke:none"
             d="m 0,0 c -1.375,-0.46 -2.656,-0.688 -3.826,-0.688 -1.809,0 -3.313,0.544 -4.477,1.631 -1.176,1.09 -1.761,2.473 -1.761,4.159 0,1.686 0.591,3.072 1.793,4.161 1.206,1.087 2.73,1.633 4.588,1.633 1.176,0 2.284,-0.298 3.313,-0.883 L -1.096,8.686 C -1.857,9.098 -2.648,9.31 -3.46,9.31 -4.716,9.31 -5.728,8.93 -6.499,8.166 -7.271,7.4 -7.649,6.4 -7.649,5.164 c 0,-1.255 0.359,-2.28 1.092,-3.075 0.725,-0.793 1.674,-1.191 2.842,-1.191 0.473,0 0.969,0.086 1.469,0.269 l 0,3.451 L 0,4.618 0,0 Z" /></g><g
           transform="translate(373.5928,402.1768)"
           id="g74"><path
             id="path76"
             style="fill:#231f20;fill-opacity:1;fill-rule:nonzero;stroke:none"
             d="m 0,0 c 0,1.333 -0.282,2.376 -0.853,3.122 -0.574,0.748 -1.359,1.12 -2.358,1.12 -1.045,0 -1.851,-0.462 -2.417,-1.377 -0.477,-0.778 -0.724,-1.721 -0.724,-2.831 0,-1.138 0.247,-2.091 0.724,-2.847 0.583,-0.908 1.399,-1.356 2.463,-1.356 0.977,0 1.738,0.374 2.312,1.121 C -0.282,-2.293 0,-1.274 0,0 m 2.413,0.147 c 0,-1.687 -0.5,-3.083 -1.512,-4.189 -1.033,-1.144 -2.388,-1.714 -4.066,-1.714 -1.662,0 -3.018,0.563 -4.062,1.697 -1.012,1.094 -1.518,2.485 -1.518,4.173 0,1.675 0.526,3.046 1.602,4.114 1.068,1.063 2.431,1.6 4.094,1.6 1.554,0 2.858,-0.543 3.902,-1.63 1.044,-1.08 1.56,-2.429 1.56,-4.051" /></g><g
           transform="translate(385.9775,396.6123)"
           id="g78"><path
             id="path80"
             style="fill:#231f20;fill-opacity:1;fill-rule:nonzero;stroke:none"
             d="m 0,0 -6.696,0 0,11.198 2.245,0 0,-9.71 L 0,1.488 0,0 Z" /></g><g
           transform="translate(398.2002,402.4014)"
           id="g82"><path
             id="path84"
             style="fill:#231f20;fill-opacity:1;fill-rule:nonzero;stroke:none"
             d="m 0,0 c 0,1.715 -0.568,2.874 -1.712,3.473 -0.576,0.295 -1.467,0.45 -2.684,0.45 l -0.976,0 0,-8.224 0.91,0 c 0.838,0 1.473,0.063 1.939,0.187 0.457,0.122 0.873,0.339 1.25,0.648 C -0.429,-2.741 0,-1.583 0,0 m 2.402,0.113 c 0,-2.342 -0.918,-4.03 -2.732,-5.053 -1.015,-0.568 -2.416,-0.849 -4.191,-0.849 l -3.09,0 0,11.198 3.09,0 c 1.056,0 1.881,-0.064 2.493,-0.194 C -1.546,5.118 -1.03,4.933 -0.475,4.658 1.437,3.705 2.402,2.193 2.402,0.113" /></g><g
           transform="translate(423.4424,407.1084)"
           id="g86"><path
             id="path88"
             style="fill:#231f20;fill-opacity:1;fill-rule:nonzero;stroke:none"
             d="m 0,0 -0.722,-1.395 c -0.825,0.47 -1.626,0.706 -2.417,0.706 -1.198,0 -2.179,-0.38 -2.924,-1.144 -0.748,-0.766 -1.121,-1.775 -1.121,-3.028 0,-1.229 0.373,-2.243 1.129,-3.041 0.744,-0.797 1.753,-1.199 3.001,-1.199 0.825,0 1.617,0.201 2.364,0.608 l 0.589,-1.374 c -0.992,-0.545 -2.091,-0.821 -3.291,-0.821 -1.802,0 -3.289,0.535 -4.454,1.601 -1.156,1.067 -1.741,2.441 -1.741,4.126 0,1.683 0.598,3.083 1.778,4.191 1.18,1.111 2.677,1.666 4.482,1.666 C -2.169,0.896 -1.061,0.593 0,0" /></g><g
           transform="translate(434.0986,402.1768)"
           id="g90"><path
             id="path92"
             style="fill:#231f20;fill-opacity:1;fill-rule:nonzero;stroke:none"
             d="m 0,0 c 0,1.333 -0.285,2.376 -0.854,3.122 -0.575,0.748 -1.36,1.12 -2.364,1.12 -1.049,0 -1.848,-0.462 -2.408,-1.377 -0.487,-0.778 -0.723,-1.721 -0.723,-2.831 0,-1.138 0.236,-2.091 0.723,-2.847 0.569,-0.908 1.393,-1.356 2.462,-1.356 0.968,0 1.735,0.374 2.31,1.121 C -0.285,-2.293 0,-1.274 0,0 m 2.413,0.147 c 0,-1.687 -0.504,-3.083 -1.523,-4.189 -1.027,-1.144 -2.382,-1.714 -4.054,-1.714 -1.669,0 -3.026,0.563 -4.065,1.697 -1.01,1.094 -1.523,2.485 -1.523,4.173 0,1.675 0.533,3.046 1.603,4.114 1.064,1.063 2.428,1.6 4.092,1.6 1.554,0 2.856,-0.543 3.905,-1.63 1.044,-1.08 1.565,-2.429 1.565,-4.051" /></g><path
           id="path94"
           style="fill:#231f20;fill-opacity:1;fill-rule:nonzero;stroke:none"
           d="m 442.798,396.612 -2.24,0 0,11.198 2.24,0 0,-11.198 z" /><g
           transform="translate(457.8525,396.6123)"
           id="g96"><path
             id="path98"
             style="fill:#231f20;fill-opacity:1;fill-rule:nonzero;stroke:none"
             d="m 0,0 -1.481,0 -6.052,7.792 0,-7.792 -1.79,0 0,11.198 1.505,0 6.005,-7.792 0,7.792 1.813,0 L 0,0 Z" /></g></g></g><g
       id="g100"><g
         clip-path="url(#clipPath104)"
         id="g102"><g
           id="g108"><g
             id="g110" /><g
             mask="url(#mask134)"
             id="g146"><g
               id="g148"><path
                 id="path168"
                 style="fill:url(#linearGradient150);stroke:none"
                 d="m 214.481,438.826 c -22.736,-2.124 -40.357,-12.495 -39.363,-23.176 l 0,0 c 0.116,-1.258 0.637,-5.979 0.75,-7.179 l 0,0 c 1.01,-10.78 20.253,-17.806 42.989,-15.682 l 0,0 c 22.74,2.114 40.359,12.581 39.349,23.367 l 0,0 c -0.117,1.267 -0.638,5.987 -0.749,7.168 l 0,0 c -0.874,9.386 -15.833,15.884 -34.87,15.884 l 0,0 c -2.633,0 -5.343,-0.124 -8.106,-0.382 m -35.777,-29.439 c -0.898,9.6 15.565,18.982 36.772,20.965 l 0,0 c 21.203,1.977 39.117,-4.206 40.013,-13.805 l 0,0 c 0.892,-9.603 -15.569,-18.986 -36.772,-20.964 l 0,0 c -2.665,-0.248 -5.28,-0.368 -7.814,-0.368 l 0,0 c -17.624,0 -31.421,5.782 -32.199,14.172" /></g></g></g></g></g><g
       id="g170"><g
         clip-path="url(#clipPath174)"
         id="g172"><g
           transform="translate(255.4893,416.5469)"
           id="g178"><path
             id="path180"
             style="fill:#bfa74a;fill-opacity:1;fill-rule:nonzero;stroke:none"
             d="m 0,0 c 0.892,-9.603 -15.569,-18.986 -36.772,-20.964 -21.201,-1.976 -39.124,4.207 -40.014,13.804 -0.379,4.031 2.315,8.021 7.132,11.445 l -4.853,6.141 c -4.045,-3.464 -6.232,-7.367 -5.864,-11.323 0.116,-1.258 0.637,-5.979 0.75,-7.178 1.01,-10.78 20.253,-17.807 42.989,-15.683 22.74,2.114 40.359,12.581 39.349,23.367 C 2.6,0.876 -0.196,2.108 0,0" /></g></g></g><g
       id="g182"><g
         clip-path="url(#clipPath186)"
         id="g184"><g
           id="g190"><g
             id="g192" /><g
             mask="url(#mask214)"
             id="g226"><g
               id="g228"><path
                 id="path246"
                 style="fill:url(#linearGradient230);stroke:none"
                 d="m 179.82,470.999 c -0.858,-0.953 -3.98,-4.523 -4.774,-5.407 l 0,0 c -7.198,-7.953 0.686,-26.822 17.625,-42.141 l 0,0 c 16.938,-15.324 36.494,-21.298 43.695,-13.342 l 0,0 c 0.842,0.937 3.974,4.512 4.774,5.399 l 0,0 c 7.272,8.034 -0.565,26.973 -17.497,42.288 l 0,0 c -11.805,10.68 -24.918,16.788 -34.239,16.788 l 0,0 c -4.05,10e-4 -7.384,-1.153 -9.584,-3.585 m 18.431,-41.088 c -15.799,14.288 -23.351,31.672 -16.886,38.811 l 0,0 c 6.468,7.148 24.516,1.37 40.313,-12.919 l 0,0 c 15.784,-14.292 23.344,-31.672 16.877,-38.821 l 0,0 c -1.882,-2.079 -4.742,-3.064 -8.24,-3.065 l 0,0 c -8.533,0 -20.864,5.86 -32.064,15.994" /></g></g></g></g></g><g
       id="g248"><g
         clip-path="url(#clipPath252)"
         id="g250"><g
           transform="translate(240.5391,420.8755)"
           id="g256"><path
             id="path258"
             style="fill:#bfa74a;fill-opacity:1;fill-rule:nonzero;stroke:none"
             d="m 0,0 c -0.36,-1.497 -1.007,-2.816 -1.984,-3.894 -6.471,-7.15 -24.512,-1.359 -40.304,12.93 -15.798,14.287 -23.351,31.672 -16.885,38.81 1.814,2.017 4.559,2.999 7.902,3.064 l -0.471,2.783 c -3.772,-0.11 -6.892,-1.265 -8.977,-3.569 -0.858,-0.954 -3.98,-4.523 -4.774,-5.408 -7.198,-7.952 0.686,-26.822 17.625,-42.14 16.938,-15.325 36.494,-21.298 43.695,-13.342 0.841,0.936 3.974,4.512 4.774,5.398 1.013,1.125 1.724,2.464 2.166,3.969 L 0,0 Z" /></g></g></g><g
       id="g260"><g
         clip-path="url(#clipPath264)"
         id="g262"><g
           id="g268"><g
             id="g270" /><g
             mask="url(#mask288)"
             id="g300"><g
               id="g302"><path
                 id="path316"
                 style="fill:url(#linearGradient304);stroke:none"
                 d="m 224.853,456.664 c -0.021,-0.016 1.377,-1.368 1.409,-1.347 l 0,0 c 11.575,6.928 23.334,8.52 26.815,3.432 l 0,0 c 3.663,-5.35 -3.19,-16.032 -15.297,-23.876 l 0,0 c -6.748,-4.372 -13.712,-6.928 -19.184,-7.421 l 0,0 -0.123,-5.113 c 6.177,-0.101 14.579,2.645 22.66,7.875 l 0,0 c 12.983,8.406 20.214,20.042 16.146,25.993 l 0,0 c -0.485,0.701 -2.332,3.303 -2.791,3.968 l 0,0 c -1.612,2.354 -4.721,3.486 -8.689,3.486 l 0,0 c -5.811,0 -13.462,-2.427 -20.946,-6.997" /></g></g></g></g></g></g></svg>