<?xml version="1.0" encoding="UTF-8" standalone="no"?>
<svg
   xmlns:dc="http://purl.org/dc/elements/1.1/"
   xmlns:cc="http://creativecommons.org/ns#"
   xmlns:rdf="http://www.w3.org/1999/02/22-rdf-syntax-ns#"
   xmlns:svg="http://www.w3.org/2000/svg"
   xmlns="http://www.w3.org/2000/svg"
   viewBox="0 0 276.35159 91.229896"
   id="svg2"
   height="91.229897"
   width="276.35159"
   version="1.1">
  <metadata
     id="metadata14">
    <rdf:RDF>
      <cc:Work
         rdf:about="">
        <dc:format>image/svg+xml</dc:format>
        <dc:type
           rdf:resource="http://purl.org/dc/dcmitype/StillImage" />
        <dc:title></dc:title>
      </cc:Work>
    </rdf:RDF>
  </metadata>
  <defs
     id="defs12" />
  <g
     transform="translate(-55.0706,-510.1155)"
     id="g4142">
    <path
       d="m 66.1045,510.5594 22.6709,0 c -2.8513,0.4858 -5.538,1.3147 -8.0685,2.4837 -4.2956,2.0115 -7.5713,4.9481 -9.8099,8.8282 -2.2393,3.8602 -3.3491,8.028 -3.3491,12.4628 0,4.0652 0.9102,7.7196 2.7295,10.9843 1.8383,3.2641 4.6233,6.0154 8.3548,8.2122 1.4576,0.8745 3.4719,1.7751 6.0381,2.7048 l 0,-12.2882 c -1.9239,-0.8642 -3.2984,-1.7212 -4.1272,-2.5713 -2.0209,-2.0324 -3.0399,-4.64 -3.0399,-7.8225 0,-3.6334 1.4377,-6.7546 4.2953,-9.3412 2.8758,-2.5872 7.4251,-3.8807 13.6865,-3.8807 6.0055,0 10.5373,1.4165 13.6131,4.2701 3.0756,2.8333 4.8782,7.0634 5.4233,12.627 l 9.9193,-0.8416 c -0.1823,-5.1741 -1.4738,-9.8141 -3.8398,-13.8997 -2.3837,-4.0859 -5.7878,-7.1864 -10.2102,-9.2804 -2.6467,-1.2603 -5.5264,-2.1413 -8.6496,-2.6475 l 25.471,0 c 6.0199,0 10.9454,5.3555 10.9454,11.9009 l 0,66.54 c 0,6.5454 -4.9255,11.9009 -10.9454,11.9009 l -24.3658,0 c 3.6315,-0.4884 6.9982,-1.5293 10.0922,-3.1249 4.4589,-2.3199 7.8806,-5.5437 10.2648,-9.6908 2.384,-4.1471 3.5672,-8.5618 3.5672,-13.2639 0,-4.7222 -1.0735,-8.9101 -3.2395,-12.5441 -2.1656,-3.6133 -5.5332,-6.6113 -10.0828,-8.9932 -3.1306,-1.6013 -8.8999,-3.4693 -17.3078,-5.6254 -0.6613,-0.1681 -1.3036,-0.3364 -1.9253,-0.504 0,14.4791 0,28.9625 0,43.4435 -3.1921,-0.3197 -6.1325,-1.1333 -8.8129,-2.4514 -3.5493,-1.7453 -6.1702,-4.024 -7.8622,-6.8576 -1.6934,-2.8332 -2.7666,-6.4468 -3.2218,-10.8612 l -9.7552,0.9649 c 0.1276,5.8927 1.5656,11.1901 4.2772,15.8502 2.7301,4.6812 6.4795,8.1718 11.2655,10.4919 3.3111,1.6251 7.1835,2.6754 11.6124,3.166 l -25.702,0 c -6.02,0 -10.9455,-5.3555 -10.9455,-11.9009 l 0,-66.4436 c 0,-6.5987 4.9652,-11.9973 11.0339,-11.9973 z m 38.0704,51.5194 c 1.5154,0.4949 2.6708,0.9173 3.4677,1.2659 3.2575,1.3964 5.6055,3.121 7.0245,5.1951 1.4389,2.0732 2.1484,4.4756 2.1484,7.247 0,2.7309 -0.7472,5.2356 -2.2213,7.5558 -1.4737,2.2997 -3.7309,4.1065 -6.751,5.4408 -1.1556,0.5026 -2.3788,0.9085 -3.6683,1.2189 l 0,-27.9235 z"
       style="fill:#009ee0;fill-rule:evenodd"
       id="path4" />
    <path
       d="m 153.7104,511.6141 12.0436,0 c 2.3697,0 4.2875,1.088 5.7533,3.2434 1.4597,2.1762 2.6689,5.2762 3.6214,9.3201 0.9529,4.0649 1.643,8.7658 2.0767,14.1446 0.4275,5.3784 0.6413,11.0647 0.6413,17.0798 0,9.4227 -0.3177,16.731 -0.9591,21.9246 -0.6351,5.1939 -1.5207,9.546 -2.6565,13.036 -1.1299,3.5104 -2.3453,5.8507 -3.6461,7.0208 -1.7771,1.6013 -3.3895,2.4018 -4.831,2.4018 l -12.0436,0 0,-88.1711 z m 8.1044,19.9744 0,48.1606 1.9851,0 c 1.6978,0 2.9008,-0.616 3.6152,-1.8887 0.7148,-1.2521 1.2765,-3.4693 1.6858,-6.6101 0.4032,-3.1411 0.6046,-8.2525 0.6046,-15.3145 0,-9.3407 -0.4519,-15.7252 -1.3557,-19.1738 -0.91,-3.4489 -2.4126,-5.1735 -4.5136,-5.1735 l -2.0214,0 z m 22.7207,-19.9744 21.7176,0 0,18.8249 -13.595,0 c 0,21.5986 0,26.115 0,49.3716 l 13.992,0 0,19.9746 -22.1146,0 0,-88.1711 z m 29.0295,88.1711 0,-88.1711 13.5095,0 c 2.5038,0 4.4216,0.7186 5.7409,2.1759 1.3252,1.4372 2.3941,4.106 3.2063,8.0269 0.8122,3.9005 1.2154,8.6632 1.2154,14.2676 0,4.9062 -0.3116,9.1148 -0.9286,12.6661 -0.6227,3.5515 -1.4778,6.4255 -2.5587,8.6428 -0.6962,1.3958 -1.6429,2.5659 -2.8459,3.4693 0.9648,1.0879 1.6672,2.1759 2.113,3.2641 0.293,0.7183 0.7267,2.2581 1.2946,4.6188 0.5682,2.3814 0.9467,4.1879 1.1361,5.4813 l 3.921,25.5583 -9.161,0 -4.3303,-26.9543 c -0.5497,-3.4694 -1.038,-5.7481 -1.4717,-6.795 -0.5802,-1.3549 -1.2459,-2.0324 -1.985,-2.0324 l -0.7144,0 0,35.7817 -8.1412,0 z m 8.1412,-52.4511 3.42,0 c 0.3664,0 1.0808,-0.3901 2.1435,-1.1906 0.5377,-0.3696 0.9773,-1.2934 1.3194,-2.7714 0.3359,-1.478 0.5068,-3.1819 0.5068,-5.1117 0,-2.8534 -0.2687,-5.0295 -0.806,-6.5486 -0.5377,-1.5398 -1.5452,-2.2992 -3.0234,-2.2992 l -3.5603,0 0,17.9215 z m 21.2853,23.2798 7.7136,-1.6217 c 0.1647,4.2083 0.5068,7.4106 1.0198,9.6279 0.8307,3.5719 2.0276,5.3373 3.5789,5.3373 1.1543,0 2.0461,-0.9031 2.6751,-2.7303 0.6231,-1.8269 0.9343,-3.9413 0.9343,-6.3434 0,-2.2785 -0.293,-4.3316 -0.8914,-6.1381 -0.5988,-1.8065 -1.9789,-3.5105 -4.1533,-5.1115 -3.5542,-2.6895 -6.0889,-6.2407 -7.6035,-10.6956 -1.527,-4.4547 -2.2905,-10.1206 -2.2905,-17.0184 0,-4.5369 0.3909,-8.8274 1.1729,-12.8509 0.7816,-4.0238 1.9541,-7.1852 3.524,-9.5048 1.5695,-2.2992 3.7192,-3.4489 6.4491,-3.4489 3.3532,0 5.9119,2.0939 7.6708,6.2818 1.7593,4.1879 2.8034,10.8598 3.1393,19.995 l -7.6402,1.4987 c -0.2018,-3.9622 -0.6289,-6.8567 -1.2826,-8.6632 -0.6475,-1.7861 -1.5451,-2.6892 -2.6871,-2.6892 -0.9467,0 -1.6553,0.6567 -2.1315,2.0117 -0.4763,1.3343 -0.7148,2.9767 -0.7148,4.9065 0,1.3958 0.1956,2.6481 0.5864,3.7772 0.3847,1.1701 1.2889,2.2376 2.7238,3.2436 3.5425,2.566 6.0769,5.1733 7.61,7.801 1.5328,2.6277 2.6504,5.8711 3.3466,9.7716 0.6962,3.88 1.0507,8.2321 1.0507,13.0564 0,5.6454 -0.4704,10.8598 -1.3986,15.6223 -0.9285,4.7831 -2.2294,8.3962 -3.9028,10.8598 -1.6673,2.4633 -3.7741,3.6952 -6.3151,3.6952 -4.4583,0 -7.5485,-2.874 -9.2645,-8.6632 -1.7226,-5.7685 -2.6937,-13.0975 -2.9194,-22.0068 z m 47.3881,-58.9998 8.0921,0 0,52.5742 c 0,5.2143 -0.2443,10.1208 -0.7267,14.7603 -0.4825,4.6188 -1.2397,8.6837 -2.2719,12.153 -1.0321,3.4693 -2.113,5.8918 -3.2491,7.3083 -1.5757,1.9502 -3.4629,2.9355 -5.6737,2.9355 -1.2765,0 -2.6689,-0.2874 -4.1773,-0.9034 -1.5084,-0.5953 -2.7667,-1.7858 -3.7807,-3.5719 -1.0136,-1.7858 -1.9421,-4.3316 -2.7849,-7.6161 -0.8427,-3.2846 -1.4167,-6.672 -1.7283,-10.1617 -0.501,-5.6044 -0.7511,-10.5724 -0.7511,-14.904 l 0,-52.5742 8.0921,0 0,53.8266 c 0,4.8242 0.397,8.581 1.1848,11.2702 0.794,2.7097 1.8934,4.0646 3.304,4.0646 1.3925,0 2.4919,-1.3342 3.2859,-4.0031 0.7878,-2.6481 1.1848,-6.4459 1.1848,-11.3317 l 0,-53.8266 z m 15.9538,0 7.5729,0 9.8757,48.7764 0,-48.7764 7.6402,0 0,88.1711 -7.6402,0 -9.8266,-48.4069 0,48.4069 -7.622,0 0,-88.1711 z"
       style="fill:#1b1918;fill-rule:evenodd"
       id="path6" />
    <path
       d="m 192.6618,555.7303 6.9461,-10.2589 6.9462,-10.2577 0,20.5166 0,20.5166 -6.9462,-10.2577 -6.9461,-10.2589 z"
       style="fill:#e30016;fill-rule:evenodd"
       id="path8" />
  </g>
</svg>
