<?xml version="1.0" encoding="UTF-8" standalone="no"?>
<svg
   xmlns:dc="http://purl.org/dc/elements/1.1/"
   xmlns:cc="http://creativecommons.org/ns#"
   xmlns:rdf="http://www.w3.org/1999/02/22-rdf-syntax-ns#"
   xmlns:svg="http://www.w3.org/2000/svg"
   xmlns="http://www.w3.org/2000/svg"
   xmlns:sodipodi="http://sodipodi.sourceforge.net/DTD/sodipodi-0.dtd"
   xmlns:inkscape="http://www.inkscape.org/namespaces/inkscape"
   viewBox="0 0 72.063751 97.628754"
   height="97.628754"
   width="72.063751"
   xml:space="preserve"
   version="1.1"
   id="svg2"
   inkscape:version="0.91 r13725"
   sodipodi:docname="IECC.svg"><sodipodi:namedview
     pagecolor="#ffffff"
     bordercolor="#666666"
     borderopacity="1"
     objecttolerance="10"
     gridtolerance="10"
     guidetolerance="10"
     inkscape:pageopacity="0"
     inkscape:pageshadow="2"
     inkscape:window-width="1280"
     inkscape:window-height="962"
     id="namedview27"
     showgrid="false"
     inkscape:zoom="3.4186076"
     inkscape:cx="69.118791"
     inkscape:cy="49.279037"
     inkscape:window-x="-8"
     inkscape:window-y="-8"
     inkscape:window-maximized="1"
     inkscape:current-layer="svg2" /><metadata
     id="metadata8"><rdf:RDF><cc:Work
         rdf:about=""><dc:format>image/svg+xml</dc:format><dc:type
           rdf:resource="http://purl.org/dc/dcmitype/StillImage" /><dc:title></dc:title></cc:Work></rdf:RDF></metadata><defs
     id="defs6"><clipPath
       id="clipPath24"
       clipPathUnits="userSpaceOnUse"><path
         id="path26"
         d="M 0,800 1280,800 1280,0 0,0 0,800 Z"
         inkscape:connector-curvature="0" /></clipPath></defs><g
     id="g4214"><rect
       y="-1.5258786e-007"
       x="0"
       height="97.628754"
       width="72.063751"
       id="rect4212"
       style="opacity:1;fill:#ffffff;fill-opacity:1;stroke:none;stroke-width:0.148;stroke-miterlimit:4;stroke-dasharray:none;stroke-opacity:1" /><g
       transform="translate(0,-3.6621094e-6)"
       id="g4192"><path
         d="m 71.43875,97.00375 -70.81375,0 0,-96.37875 70.81375,0 0,96.37875 z"
         style="fill:none;stroke:#231f20;stroke-width:1.25;stroke-linecap:butt;stroke-linejoin:miter;stroke-miterlimit:10;stroke-dasharray:none;stroke-opacity:1"
         id="path88"
         inkscape:connector-curvature="0" /><path
         d="m 11.195,74.19125 3.5275,0 0,15.935 -3.5275,0 0,-15.935 z"
         style="fill:#231f20;fill-opacity:1;fill-rule:nonzero;stroke:none"
         id="path90"
         inkscape:connector-curvature="0" /><path
         id="path94"
         style="fill:#231f20;fill-opacity:1;fill-rule:nonzero;stroke:none"
         d="m 19.5765,90.12625 0,-15.935 11.26,0 0,3.1625 -7.74,0 0,3.22875 6.595,0 0,3.04375 -6.595,0 0,3.34375 7.74,0 0,3.15625 -11.26,0 z"
         inkscape:connector-curvature="0" /><path
         id="path98"
         style="fill:#231f20;fill-opacity:1;fill-rule:nonzero;stroke:none"
         d="m 46.173125,86.259125 c -0.395,1.25375 -1.11125,2.23 -2.14,2.9425 -1.02875,0.71 -2.2925,1.06375 -3.7875,1.06375 -1.04,0 -1.9425,-0.15125 -2.71,-0.4575 -0.76625,-0.30875 -1.405,-0.735 -1.9125,-1.28375 -0.51,-0.5475 -0.8875,-1.205 -1.14,-1.97 -0.25125,-0.75875 -0.3725,-1.6025 -0.3725,-2.51625 l 0,-3.755 c 0,-0.82125 0.12125,-1.61 0.3725,-2.35875 0.2525,-0.7475 0.63,-1.405 1.14,-1.97875 0.5075,-0.5725 1.14625,-1.025 1.9125,-1.36125 0.7675,-0.335 1.67,-0.505 2.71,-0.505 1.52125,0 2.79375,0.37375 3.81,1.11125 1.015,0.74125 1.7225,1.72125 2.1175,2.94375 l -3.34125,1.19 c -0.12375,-0.55125 -0.40625,-1.01125 -0.84875,-1.38375 -0.44125,-0.37625 -1.02875,-0.56375 -1.7625,-0.56375 -0.44125,0 -0.82,0.0725 -1.14375,0.215 -0.3175,0.1475 -0.58625,0.34125 -0.79875,0.58375 -0.21625,0.2475 -0.37625,0.52625 -0.48625,0.83875 -0.10125,0.31375 -0.15875,0.6275 -0.15875,0.95125 l 0,4.32375 c 0,0.35125 0.0575,0.68875 0.15875,1.00875 0.11,0.32 0.27,0.60125 0.48625,0.845 0.2125,0.245 0.48125,0.4425 0.79875,0.5975 0.32375,0.15 0.7025,0.22875 1.14375,0.22875 0.71625,0 1.30375,-0.18875 1.75375,-0.56 0.44875,-0.37625 0.73375,-0.85375 0.8575,-1.43125 l 3.34125,1.28125 z"
         inkscape:connector-curvature="0" /><path
         id="path102"
         style="fill:#231f20;fill-opacity:1;fill-rule:nonzero;stroke:none"
         d="m 61.625375,86.259125 c -0.39875,1.25375 -1.1125,2.23 -2.14125,2.9425 -1.03,0.71 -2.2925,1.06375 -3.78875,1.06375 -1.0375,0 -1.94125,-0.15125 -2.70875,-0.4575 -0.76625,-0.30875 -1.405,-0.735 -1.9125,-1.28375 -0.50875,-0.5475 -0.89,-1.205 -1.14,-1.97 -0.25,-0.75875 -0.375,-1.6025 -0.375,-2.51625 l 0,-3.755 c 0,-0.82125 0.125,-1.61 0.375,-2.35875 0.25,-0.7475 0.63125,-1.405 1.14,-1.97875 0.5075,-0.5725 1.14625,-1.025 1.9125,-1.36125 0.7675,-0.335 1.67125,-0.505 2.70875,-0.505 1.525,0 2.795,0.37375 3.81,1.11125 1.01625,0.74125 1.72125,1.72125 2.12,2.94375 l -3.3425,1.19 c -0.12375,-0.55125 -0.4075,-1.01125 -0.84875,-1.38375 -0.4425,-0.37625 -1.02875,-0.56375 -1.7625,-0.56375 -0.44125,0 -0.82375,0.0725 -1.14375,0.215 -0.32,0.1475 -0.5875,0.34125 -0.79875,0.58375 -0.2175,0.2475 -0.37625,0.52625 -0.485,0.83875 -0.10375,0.31375 -0.16,0.6275 -0.16,0.95125 l 0,4.32375 c 0,0.35125 0.05625,0.68875 0.16,1.00875 0.10875,0.32 0.2675,0.60125 0.485,0.845 0.21125,0.245 0.47875,0.4425 0.79875,0.5975 0.32,0.15 0.7025,0.22875 1.14375,0.22875 0.71625,0 1.29875,-0.18875 1.75125,-0.56 0.45125,-0.37625 0.73625,-0.85375 0.86,-1.43125 l 3.3425,1.28125 z"
         inkscape:connector-curvature="0" /><path
         id="path106"
         style="fill:#ee4851;fill-opacity:1;fill-rule:nonzero;stroke:none"
         d="m 8.026125,22.51025 c -0.5925,0.5975 -0.3925,1.0775 0.4475,1.0775 l 13.91375,0 c 0.83875,0 1.52375,-0.685 1.52375,-1.525 l 0,-13.91375 c 0,-0.83375 -0.48125,-1.0375 -1.075,-0.44625 l -14.81,14.8075 z"
         inkscape:connector-curvature="0" /><path
         id="path110"
         style="fill:#3cbded;fill-opacity:1;fill-rule:nonzero;stroke:none"
         d="m 30.022625,23.588125 c -0.835,0 -1.03375,-0.48125 -0.4375,-1.0775 l 14.80125,-14.8075 c 0.59125,-0.5925 1.0825,-0.38875 1.0825,0.445 l 0,13.91375 c 0,0.84125 -0.68875,1.52625 -1.52375,1.52625 l -13.9225,0 z"
         inkscape:connector-curvature="0" /><path
         id="path114"
         style="fill:#3cbded;fill-opacity:1;fill-rule:nonzero;stroke:none"
         d="m 64.035125,27.3565 c 0.595,-0.59 0.3975,-1.0775 -0.44125,-1.0775 l -13.92,0 c -0.8325,0 -1.52,0.6825 -1.52,1.52 l 0,13.92375 c 0,0.83375 0.48625,1.035 1.07625,0.44125 l 14.805,-14.8075 z"
         inkscape:connector-curvature="0" /><path
         id="path118"
         style="fill:#ffd33c;fill-opacity:1;fill-rule:nonzero;stroke:none"
         d="m 8.026125,44.063 c -0.5925,0.595 -0.3925,1.075 0.4475,1.075 l 13.91375,0 c 0.83875,0 1.52375,-0.6775 1.52375,-1.52 l 0,-13.91375 c 0,-0.8375 -0.48125,-1.0375 -1.075,-0.44625 l -14.81,14.805 z"
         inkscape:connector-curvature="0" /><path
         id="path122"
         style="fill:#ffd33c;fill-opacity:1;fill-rule:nonzero;stroke:none"
         d="m 8.026125,48.90925 c -0.5925,-0.5975 -0.3925,-1.0775 0.4475,-1.0775 l 13.91375,0 c 0.83875,0 1.52375,0.685 1.52375,1.52 l 0,13.91875 c 0,0.8325 -0.48125,1.0375 -1.075,0.445 l -14.81,-14.80625 z"
         inkscape:connector-curvature="0" /><path
         id="path126"
         style="fill:#66be6f;fill-opacity:1;fill-rule:nonzero;stroke:none"
         d="m 29.585,48.90925 c -0.59625,-0.5975 -0.3975,-1.0775 0.4375,-1.0775 l 13.9225,0 c 0.835,0 1.52375,0.685 1.52375,1.52 l 0,13.91875 c 0,0.8325 -0.49125,1.0375 -1.0825,0.445 L 29.585,48.90925 Z"
         inkscape:connector-curvature="0" /><path
         id="path130"
         style="fill:#66be6f;fill-opacity:1;fill-rule:nonzero;stroke:none"
         d="m 48.154375,49.352375 c 0,-0.83625 0.68625,-1.52125 1.51875,-1.52125 l 13.92125,0 c 0.83875,0 1.035,0.48125 0.44125,1.07875 l -14.80625,14.805 c -0.58875,0.59375 -1.075,0.38875 -1.075,-0.44375 l 0,-13.91875 z"
         inkscape:connector-curvature="0" /><path
         id="path134"
         style="fill:#ee4851;fill-opacity:1;fill-rule:nonzero;stroke:none"
         d="m 26.604,8.14875 c 0,-0.83375 0.485,-1.0375 1.0725,-0.445 l 5.38125,5.375 c 0.59125,0.59625 0.59125,1.5625 0,2.1575 L 27.6765,20.61 C 27.089,21.20125 26.604,21.0025 26.604,20.1625 l 0,-12.01375 z"
         inkscape:connector-curvature="0" /><path
         id="path138"
         style="fill:#ee4851;fill-opacity:1;fill-rule:nonzero;stroke:none"
         d="m 15.55725,32.736125 c -0.5925,0.59 -1.5575,0.59 -2.15625,0 l -5.375,-5.38 c -0.5925,-0.58875 -0.3925,-1.0775 0.4475,-1.0775 l 12.0125,0 c 0.84125,0 1.03875,0.48875 0.44625,1.0775 l -5.375,5.38 z"
         inkscape:connector-curvature="0" /><path
         id="path142"
         style="fill:#ffd33c;fill-opacity:1;fill-rule:nonzero;stroke:none"
         d="m 26.604,51.256625 c 0,-0.84125 0.485,-1.045 1.0725,-0.4525 l 5.38125,5.375 c 0.59125,0.59625 0.59125,1.5675 0,2.16 l -5.38125,5.37625 c -0.5875,0.5925 -1.0725,0.3875 -1.0725,-0.445 l 0,-12.01375 z"
         inkscape:connector-curvature="0" /><path
         id="path146"
         style="fill:#3cbded;fill-opacity:1;fill-rule:nonzero;stroke:none"
         d="m 64.035125,22.51025 c 0.595,0.5975 0.3975,1.0775 -0.44125,1.0775 l -12.01625,0 c -0.835,0 -1.0375,-0.48 -0.4425,-1.0775 l 5.3675,-5.375 c 0.60125,-0.59375 1.57,-0.59375 2.16,0 l 5.3725,5.375 z"
         inkscape:connector-curvature="0" /><path
         id="path150"
         style="fill:#3cbded;fill-opacity:1;fill-rule:nonzero;stroke:none"
         d="m 49.22975,20.609625 c -0.59,0.5925 -1.075,0.3925 -1.075,-0.44625 l 0,-12.015 c 0,-0.83375 0.485,-1.0375 1.075,-0.445 l 5.3775,5.37625 c 0.58875,0.595 0.58875,1.5625 0,2.15625 l -5.3775,5.37375 z"
         inkscape:connector-curvature="0" /><path
         id="path154"
         style="fill:#66be6f;fill-opacity:1;fill-rule:nonzero;stroke:none"
         d="m 56.502125,38.691875 c 0.60125,-0.6 1.57,-0.6 2.16,0 l 5.3725,5.37125 c 0.595,0.59375 0.39875,1.075 -0.44125,1.075 l -12.01625,0 c -0.835,0 -1.0375,-0.48125 -0.44125,-1.075 l 5.36625,-5.37125 z"
         inkscape:connector-curvature="0" /></g></g></svg>