<?xml version="1.0" encoding="UTF-8" standalone="no"?>
<svg
   xmlns:dc="http://purl.org/dc/elements/1.1/"
   xmlns:cc="http://creativecommons.org/ns#"
   xmlns:rdf="http://www.w3.org/1999/02/22-rdf-syntax-ns#"
   xmlns:svg="http://www.w3.org/2000/svg"
   xmlns="http://www.w3.org/2000/svg"
   viewBox="0 0 72.063751 97.628754"
   height="97.628754"
   width="72.063751"
   xml:space="preserve"
   version="1.1"
   id="svg2"><metadata
     id="metadata8"><rdf:RDF><cc:Work
         rdf:about=""><dc:format>image/svg+xml</dc:format><dc:type
           rdf:resource="http://purl.org/dc/dcmitype/StillImage" /><dc:title></dc:title></cc:Work></rdf:RDF></metadata><defs
     id="defs6"><clipPath
       id="clipPath24"
       clipPathUnits="userSpaceOnUse"><path
         id="path26"
         d="M 0,800 1280,800 1280,0 0,0 0,800 Z" /></clipPath></defs><g
     transform="matrix(1.25,0,0,-1.25,-331.665,369.085)"
     id="g10"><g
       id="g4645"><path
         d="m 322.483,217.665 -56.651,0 0,77.103 56.651,0 0,-77.103 z"
         style="fill:none;stroke:#231f20;stroke-width:1;stroke-linecap:butt;stroke-linejoin:miter;stroke-miterlimit:10;stroke-dasharray:none;stroke-opacity:1"
         id="path88" /><path
         d="m 274.288,235.915 2.822,0 0,-12.748 -2.822,0 0,12.748 z"
         style="fill:#231f20;fill-opacity:1;fill-rule:nonzero;stroke:none"
         id="path90" /><path
         id="path94"
         style="fill:#231f20;fill-opacity:1;fill-rule:nonzero;stroke:none"
         d="m 280.9932,223.167 0,12.748 9.008,0 0,-2.53 -6.192,0 0,-2.583 5.276,0 0,-2.435 -5.276,0 0,-2.675 6.192,0 0,-2.525 -9.008,0 z" /><path
         id="path98"
         style="fill:#231f20;fill-opacity:1;fill-rule:nonzero;stroke:none"
         d="m 302.2705,226.2607 c -0.316,-1.003 -0.889,-1.784 -1.712,-2.354 -0.823,-0.568 -1.834,-0.851 -3.03,-0.851 -0.832,0 -1.554,0.121 -2.168,0.366 -0.613,0.247 -1.124,0.588 -1.53,1.027 -0.408,0.438 -0.71,0.964 -0.912,1.576 -0.201,0.607 -0.298,1.282 -0.298,2.013 l 0,3.004 c 0,0.657 0.097,1.288 0.298,1.887 0.202,0.598 0.504,1.124 0.912,1.583 0.406,0.458 0.917,0.82 1.53,1.089 0.614,0.268 1.336,0.404 2.168,0.404 1.217,0 2.235,-0.299 3.048,-0.889 0.812,-0.593 1.378,-1.377 1.694,-2.355 l -2.673,-0.952 c -0.099,0.441 -0.325,0.809 -0.679,1.107 -0.353,0.301 -0.823,0.451 -1.41,0.451 -0.353,0 -0.656,-0.058 -0.915,-0.172 -0.254,-0.118 -0.469,-0.273 -0.639,-0.467 -0.173,-0.198 -0.301,-0.421 -0.389,-0.671 -0.081,-0.251 -0.127,-0.502 -0.127,-0.761 l 0,-3.459 c 0,-0.281 0.046,-0.551 0.127,-0.807 0.088,-0.256 0.216,-0.481 0.389,-0.676 0.17,-0.196 0.385,-0.354 0.639,-0.478 0.259,-0.12 0.562,-0.183 0.915,-0.183 0.573,0 1.043,0.151 1.403,0.448 0.359,0.301 0.587,0.683 0.686,1.145 l 2.673,-1.025 z" /><path
         id="path102"
         style="fill:#231f20;fill-opacity:1;fill-rule:nonzero;stroke:none"
         d="m 314.6323,226.2607 c -0.319,-1.003 -0.89,-1.784 -1.713,-2.354 -0.824,-0.568 -1.834,-0.851 -3.031,-0.851 -0.83,0 -1.553,0.121 -2.167,0.366 -0.613,0.247 -1.124,0.588 -1.53,1.027 -0.407,0.438 -0.712,0.964 -0.912,1.576 -0.2,0.607 -0.3,1.282 -0.3,2.013 l 0,3.004 c 0,0.657 0.1,1.288 0.3,1.887 0.2,0.598 0.505,1.124 0.912,1.583 0.406,0.458 0.917,0.82 1.53,1.089 0.614,0.268 1.337,0.404 2.167,0.404 1.22,0 2.236,-0.299 3.048,-0.889 0.813,-0.593 1.377,-1.377 1.696,-2.355 l -2.674,-0.952 c -0.099,0.441 -0.326,0.809 -0.679,1.107 -0.354,0.301 -0.823,0.451 -1.41,0.451 -0.353,0 -0.659,-0.058 -0.915,-0.172 -0.256,-0.118 -0.47,-0.273 -0.639,-0.467 -0.174,-0.198 -0.301,-0.421 -0.388,-0.671 -0.083,-0.251 -0.128,-0.502 -0.128,-0.761 l 0,-3.459 c 0,-0.281 0.045,-0.551 0.128,-0.807 0.087,-0.256 0.214,-0.481 0.388,-0.676 0.169,-0.196 0.383,-0.354 0.639,-0.478 0.256,-0.12 0.562,-0.183 0.915,-0.183 0.573,0 1.039,0.151 1.401,0.448 0.361,0.301 0.589,0.683 0.688,1.145 l 2.674,-1.025 z" /><path
         id="path106"
         style="fill:#ee4851;fill-opacity:1;fill-rule:nonzero;stroke:none"
         d="m 271.7529,277.2598 c -0.474,-0.478 -0.314,-0.862 0.358,-0.862 l 11.131,0 c 0.671,0 1.219,0.548 1.219,1.22 l 0,11.131 c 0,0.667 -0.385,0.83 -0.86,0.357 l -11.848,-11.846 z" /><path
         id="path110"
         style="fill:#3cbded;fill-opacity:1;fill-rule:nonzero;stroke:none"
         d="m 289.3501,276.3975 c -0.668,0 -0.827,0.385 -0.35,0.862 l 11.841,11.846 c 0.473,0.474 0.866,0.311 0.866,-0.356 l 0,-11.131 c 0,-0.673 -0.551,-1.221 -1.219,-1.221 l -11.138,0 z" /><path
         id="path114"
         style="fill:#3cbded;fill-opacity:1;fill-rule:nonzero;stroke:none"
         d="m 316.5601,273.3828 c 0.476,0.472 0.318,0.862 -0.353,0.862 l -11.136,0 c -0.666,0 -1.216,-0.546 -1.216,-1.216 l 0,-11.139 c 0,-0.667 0.389,-0.828 0.861,-0.353 l 11.844,11.846 z" /><path
         id="path118"
         style="fill:#ffd33c;fill-opacity:1;fill-rule:nonzero;stroke:none"
         d="m 271.7529,260.0176 c -0.474,-0.476 -0.314,-0.86 0.358,-0.86 l 11.131,0 c 0.671,0 1.219,0.542 1.219,1.216 l 0,11.131 c 0,0.67 -0.385,0.83 -0.86,0.357 l -11.848,-11.844 z" /><path
         id="path122"
         style="fill:#ffd33c;fill-opacity:1;fill-rule:nonzero;stroke:none"
         d="m 271.7529,256.1406 c -0.474,0.478 -0.314,0.862 0.358,0.862 l 11.131,0 c 0.671,0 1.219,-0.548 1.219,-1.216 l 0,-11.135 c 0,-0.666 -0.385,-0.83 -0.86,-0.356 l -11.848,11.845 z" /><path
         id="path126"
         style="fill:#66be6f;fill-opacity:1;fill-rule:nonzero;stroke:none"
         d="m 289,256.1406 c -0.477,0.478 -0.318,0.862 0.35,0.862 l 11.138,0 c 0.668,0 1.219,-0.548 1.219,-1.216 l 0,-11.135 c 0,-0.666 -0.393,-0.83 -0.866,-0.356 L 289,256.1406 Z" /><path
         id="path130"
         style="fill:#66be6f;fill-opacity:1;fill-rule:nonzero;stroke:none"
         d="m 303.8555,255.7861 c 0,0.669 0.549,1.217 1.215,1.217 l 11.137,0 c 0.671,0 0.828,-0.385 0.353,-0.863 l -11.845,-11.844 c -0.471,-0.475 -0.86,-0.311 -0.86,0.355 l 0,11.135 z" /><path
         id="path134"
         style="fill:#ee4851;fill-opacity:1;fill-rule:nonzero;stroke:none"
         d="m 286.6152,288.749 c 0,0.667 0.388,0.83 0.858,0.356 l 4.305,-4.3 c 0.473,-0.477 0.473,-1.25 0,-1.726 l -4.305,-4.299 c -0.47,-0.473 -0.858,-0.314 -0.858,0.358 l 0,9.611 z" /><path
         id="path138"
         style="fill:#ee4851;fill-opacity:1;fill-rule:nonzero;stroke:none"
         d="m 277.7778,269.0791 c -0.474,-0.472 -1.246,-0.472 -1.725,0 l -4.3,4.304 c -0.474,0.471 -0.314,0.862 0.358,0.862 l 9.61,0 c 0.673,0 0.831,-0.391 0.357,-0.862 l -4.3,-4.304 z" /><path
         id="path142"
         style="fill:#ffd33c;fill-opacity:1;fill-rule:nonzero;stroke:none"
         d="m 286.6152,254.2627 c 0,0.673 0.388,0.836 0.858,0.362 l 4.305,-4.3 c 0.473,-0.477 0.473,-1.254 0,-1.728 l -4.305,-4.301 c -0.47,-0.474 -0.858,-0.31 -0.858,0.356 l 0,9.611 z" /><path
         id="path146"
         style="fill:#3cbded;fill-opacity:1;fill-rule:nonzero;stroke:none"
         d="m 316.5601,277.2598 c 0.476,-0.478 0.318,-0.862 -0.353,-0.862 l -9.613,0 c -0.668,0 -0.83,0.384 -0.354,0.862 l 4.294,4.3 c 0.481,0.475 1.256,0.475 1.728,0 l 4.298,-4.3 z" /><path
         id="path150"
         style="fill:#3cbded;fill-opacity:1;fill-rule:nonzero;stroke:none"
         d="m 304.7158,278.7803 c -0.472,-0.474 -0.86,-0.314 -0.86,0.357 l 0,9.612 c 0,0.667 0.388,0.83 0.86,0.356 l 4.302,-4.301 c 0.471,-0.476 0.471,-1.25 0,-1.725 l -4.302,-4.299 z" /><path
         id="path154"
         style="fill:#66be6f;fill-opacity:1;fill-rule:nonzero;stroke:none"
         d="m 310.5337,264.3145 c 0.481,0.48 1.256,0.48 1.728,0 l 4.298,-4.297 c 0.476,-0.475 0.319,-0.86 -0.353,-0.86 l -9.613,0 c -0.668,0 -0.83,0.385 -0.353,0.86 l 4.293,4.297 z" /></g></g></svg>