<?xml version="1.0" encoding="UTF-8" standalone="no"?>
<svg
   xmlns:dc="http://purl.org/dc/elements/1.1/"
   xmlns:cc="http://creativecommons.org/ns#"
   xmlns:rdf="http://www.w3.org/1999/02/22-rdf-syntax-ns#"
   xmlns:svg="http://www.w3.org/2000/svg"
   xmlns="http://www.w3.org/2000/svg"
   viewBox="0 0 737.1529 744.10141"
   height="744.10144"
   width="737.15289"
   xml:space="preserve"
   version="1.1"
   id="svg2"><metadata
     id="metadata8"><rdf:RDF><cc:Work
         rdf:about=""><dc:format>image/svg+xml</dc:format><dc:type
           rdf:resource="http://purl.org/dc/dcmitype/StillImage" /><dc:title></dc:title></cc:Work></rdf:RDF></metadata><defs
     id="defs6"><clipPath
       id="clipPath16"
       clipPathUnits="userSpaceOnUse"><path
         id="path18"
         d="m 0,841.89 595.28,0 L 595.28,0 0,0 0,841.89 Z" /></clipPath><clipPath
       id="clipPath24"
       clipPathUnits="userSpaceOnUse"><path
         id="path26"
         d="m 1.771,749.261 589.723,0 0,-595.282 -589.723,0 0,595.282 z" /></clipPath></defs><g
     transform="matrix(1.25,0,0,-1.25,-2.2138809,936.57567)"
     id="g10"><g
       id="g12"><g
         clip-path="url(#clipPath16)"
         id="g14"><g
           id="g20"><g
             id="g22" /><g
             id="g28"><g
               id="g30"
               clip-path="url(#clipPath24)"><g
                 id="g32"
                 transform="translate(273.8301,701.6396)"><path
                   id="path34"
                   style="fill:#ed1c24;fill-opacity:1;fill-rule:nonzero;stroke:none"
                   d="M 0,0 C -0.17,1.81 0,0 -2.98,2.97 -6.52,1.49 -7.44,0.88 -11.91,0 c -155.13,-30.75 -262.62,-171.53 -193.46,-354.2 10.38,13.39 18.74,27.54 26.78,41.67 C -119,-207.79 -57.55,-104.35 0,0 M 255.97,-351.22 C 320.84,-175.86 206.05,-15.3 56.55,0 122.54,-117.56 187.13,-236.52 255.97,-351.22 m 20.83,14.88 c 9.83,28.34 18.84,70.82 14.88,119.06 C 281.12,-88.6 173.91,5.85 47.62,20.83 42.189,33.57 37.63,35.75 31.17,47.62 c 212.019,0.56 359.49,-249.4 248.61,-446.46 l -59.53,0 c -59.69,117.9 -131.271,227.81 -191.08,345.59 -10.5,-17 -15.5,-28.14 -23.22,-42 -54.1,-97.19 -121.84,-200.29 -175.61,-303.59 l -65.48,0 c -15.13,45.2 -31.81,72.11 -35.71,119.05 C -286.12,-96.44 -154.95,35.1 21.17,47.62 19.96,38.75 12.67,30.75 8.93,20.83 -181.09,14.88 -307.45,-194.83 -214.3,-375.03 c 3.49,5.74 5.47,16.78 5.47,16.78 0,0 -11.5,21.59 -14.4,30.84 -53.05,169.56 64.13,327.99 226.2,336.33 9.64,9.87 23.82,35.72 23.82,35.72 0,0 14.97,-24.71 23.81,-35.72 142.2,-17.21 248.83,-130.93 232.16,-288.71 -3.49,-32.95 -21.3,-57.46 -20.84,-89.29 10.94,5.28 10.83,21.05 14.88,32.74" /></g><g
                 id="g36"
                 transform="translate(514.9199,296.8496)"><path
                   id="path38"
                   style="fill:#ed1c24;fill-opacity:1;fill-rule:nonzero;stroke:none"
                   d="M 0,0 32.74,0 C 7.4,-37.17 -20.97,-71.31 -62.51,-92.27 c -0.41,10.5 -8.52,13.31 -8.929,23.81 C -42.5,-50.77 -19.81,-26.83 0,0" /></g><g
                 id="g40"
                 transform="translate(497.0596,296.8496)"><path
                   id="path42"
                   style="fill:#ed1c24;fill-opacity:1;fill-rule:nonzero;stroke:none"
                   d="m 0,0 c 5.641,-1.05 -9.729,-21.68 -17.859,-29.77 -11.561,-11.49 -29.17,-24.95 -44.651,-29.76 -5.87,9.77 9.861,13.44 14.88,17.86 13.481,11.82 30.061,24.99 38.7,41.67 2.97,0 3.29,1.05 8.93,0" /></g><g
                 id="g44"
                 transform="translate(452.4102,302.7998)"><path
                   id="path46"
                   style="fill:#ed1c24;fill-opacity:1;fill-rule:nonzero;stroke:none"
                   d="m 0,0 c 2.609,-5.84 -53.57,-2.98 -53.57,-2.98 0,0 -66.821,111.76 -95.25,172.63 -37.52,-53.751 -101.2,-172.63 -101.2,-172.63 L -303.59,0 -148.811,270.59 C -148.811,270.59 -2.61,5.84 0,0" /></g><g
                 id="g48"
                 transform="translate(428.5996,198.6201)"><path
                   id="path50"
                   style="fill:#ed1c24;fill-opacity:1;fill-rule:nonzero;stroke:none"
                   d="m 0,0 c 8.881,-0.66 10.12,10.989 17.86,2.979 -1.83,-12.169 -22.139,-18 -29.769,-14.879 1.649,9.269 2.43,19.389 5.96,26.79 -2.74,8.11 -9.311,-4.161 -17.861,0 2.581,11.42 21.611,18.53 29.76,14.88 C 6.681,17.13 -1.83,13.739 0,0" /></g><g
                 id="g52"
                 transform="translate(407.7695,198.6201)"><path
                   id="path54"
                   style="fill:#ed1c24;fill-opacity:1;fill-rule:nonzero;stroke:none"
                   d="m 0,0 c -2.159,-9.101 5.131,-8.75 2.971,-17.851 -8.3,-2.61 -14.7,-7.129 -23.811,-8.929 -1.71,6.219 -7.38,8.49 -5.949,17.849 5.92,-2.78 14.17,-9.679 20.829,-2.969 -0.659,9.259 -14.81,5.03 -23.81,5.95 0.071,7.01 -5.12,8.76 -2.969,17.859 9.91,1 13.2,8.62 26.779,5.95 C -6.21,13.64 -6.449,9.43 -2.979,8.93 -5.09,-5.561 -19.479,19.699 -23.819,2.979 -21.6,-3.73 -7.119,1.819 0,0" /></g><g
                 id="g56"
                 transform="translate(369.0703,177.79)"><path
                   id="path58"
                   style="fill:#ed1c24;fill-opacity:1;fill-rule:nonzero;stroke:none"
                   d="M 0,0 C 2.16,9.1 -5.13,8.75 -2.971,17.859 -10.87,17.81 -20.5,19.51 -20.83,11.899 -16.41,9.38 -16.53,2.319 -14.88,-2.98 -6.471,-5.44 -7.17,1.22 0,0 M -2.971,29.76 C 3.52,20.38 10.04,11.029 8.93,-5.95 -0.641,-9.28 -8.721,-14.101 -20.83,-14.881 -18.99,2.84 -31.141,6.56 -29.761,23.81 c 9.591,1.32 16.12,5.7 26.79,5.95" /></g><g
                 id="g60"
                 transform="translate(300.6201,392.0898)"><path
                   id="path62"
                   style="fill:#ed1c24;fill-opacity:1;fill-rule:nonzero;stroke:none"
                   d="m 0,0 47.62,-92.271 -95.25,0 L 0,0 Z" /></g><g
                 id="g64"
                 transform="translate(336.3301,177.79)"><path
                   id="path66"
                   style="fill:#ed1c24;fill-opacity:1;fill-rule:nonzero;stroke:none"
                   d="m 0,0 c 4.13,-1.83 0.45,-11.46 5.95,-11.91 -1.12,-9.521 -33.33,-15.901 -32.74,0 6.17,1.769 19.56,-3.681 20.84,2.979 -1.28,6.651 -14.67,1.21 -20.84,2.981 -3.29,5.63 -3.79,14.059 -5.95,20.83 10.64,1.26 15.88,7.93 29.77,5.95 l 0,-14.881 C -12.04,5.109 -14.55,15.489 -20.83,8.93 -22.78,-2.94 -9.521,0.399 0,0" /></g><g
                 id="g68"
                 transform="translate(300.6201,180.7695)"><path
                   id="path70"
                   style="fill:#ed1c24;fill-opacity:1;fill-rule:nonzero;stroke:none"
                   d="m 0,0 c 0.58,-8.53 0.37,-16.25 -8.93,-14.89 -3.82,3.911 -3.82,10.97 0,14.89 L 0,0 Z" /></g><g
                 id="g72"
                 transform="translate(288.71,195.6494)"><path
                   id="path74"
                   style="fill:#ed1c24;fill-opacity:1;fill-rule:nonzero;stroke:none"
                   d="m 0,0 c -4.37,-17.46 -6.01,-37.649 -23.81,-41.67 -0.21,15.09 10.52,19.24 11.9,32.74 -7.04,9.701 -16.86,-2.75 -23.81,-2.98 -6.56,6.29 3.82,8.801 2.98,17.86 C -18.89,6.91 -12.88,0.021 0,0" /></g><g
                 id="g76"
                 transform="translate(241.0898,207.5498)"><path
                   id="path78"
                   style="fill:#ed1c24;fill-opacity:1;fill-rule:nonzero;stroke:none"
                   d="M 0,0 C 11.95,-7.93 0.62,-41.601 -11.91,-44.641 -16.68,-31.891 -2.99,-14.63 0,0" /></g><g
                 id="g80"
                 transform="translate(214.2998,198.6201)"><path
                   id="path82"
                   style="fill:#ed1c24;fill-opacity:1;fill-rule:nonzero;stroke:none"
                   d="M 0,0 C 2.59,11.3 -9.88,13.979 -14.88,8.93 -16.24,-0.37 -8.52,-0.58 0,0 M 11.91,14.89 C 11.32,-3.381 2.58,-13.49 0,-29.761 c -11.38,6.55 -40.27,4.45 -29.76,23.811 11.73,0.819 9.1,-12.721 20.83,-11.901 2.65,1.311 5.32,2.611 5.95,5.951 -3.87,7.04 -16.09,5.74 -23.81,8.929 2.23,9.67 5.39,18.42 8.93,26.781 9.57,-3.331 17.65,-8.14 29.77,-8.92" /></g><g
                 id="g84"
                 transform="translate(175.23,239.2793)"><path
                   id="path86"
                   style="fill:#ed1c24;fill-opacity:1;fill-rule:nonzero;stroke:none"
                   d="m 0,0 -8.55,-7.92 c 0,0 -56.41,32.891 -68.46,65.49 l 8.93,0 C -49.05,21.63 0,0 0,0" /></g><g
                 id="g88"
                 transform="translate(178.5801,228.3896)"><path
                   id="path90"
                   style="fill:#ed1c24;fill-opacity:1;fill-rule:nonzero;stroke:none"
                   d="M 0,0 C -6.79,-15.03 -3.95,-39.71 -23.81,-41.67 -16.18,-27.48 -19.53,-2.29 0,0" /></g><g
                 id="g92"
                 transform="translate(157.75,225.4092)"><path
                   id="path94"
                   style="fill:#ed1c24;fill-opacity:1;fill-rule:nonzero;stroke:none"
                   d="m 0,0 c -1.59,-10.319 -7.96,-15.85 -8.93,-26.789 -42,23.489 -72.46,58.51 -101.2,95.25 17.88,1.019 32.74,2.979 32.74,2.979 0,0 44.6,-54.62 77.39,-71.44" /></g></g></g></g></g></g></g></svg>