<?xml version="1.0" encoding="UTF-8" standalone="no"?>
<svg
   xmlns:dc="http://purl.org/dc/elements/1.1/"
   xmlns:cc="http://creativecommons.org/ns#"
   xmlns:rdf="http://www.w3.org/1999/02/22-rdf-syntax-ns#"
   xmlns:svg="http://www.w3.org/2000/svg"
   xmlns="http://www.w3.org/2000/svg"
   height="100"
   width="100"
   xml:space="preserve"
   viewBox="0 0 100 99.999999"
   y="0px"
   x="0px"
   id="Logo"
   version="1.1"><metadata
     id="metadata15"><rdf:RDF><cc:Work
         rdf:about=""><dc:format>image/svg+xml</dc:format><dc:type
           rdf:resource="http://purl.org/dc/dcmitype/StillImage" /><dc:title></dc:title></cc:Work></rdf:RDF></metadata><defs
     id="defs13" /><g
     style="fill:#ffffff"
     transform="matrix(0.1984127,0,0,0.19845207,0,1.1415201e-5)"
     id="g4170"><path
       style="fill:#ffffff;fill-opacity:1"
       id="path5"
       d="m 251.9,45.399997 c 67.3,0 75.2,0.3 101.8,1.5 24.6,1.1 37.9,5.2 46.8,8.7 11.8,4.6 20.2,10 29,18.8 8.8,8.8 14.3,17.2 18.8,29.000003 3.4,8.9 7.6,22.2 8.7,46.8 1.2,26.6 1.5,34.5 1.5,101.8 0,67.3 -0.3,75.2 -1.5,101.8 -1.1,24.6 -5.2,37.9 -8.7,46.8 -4.6,11.8 -10,20.2 -18.8,29 -8.8,8.8 -17.2,14.3 -29,18.8 -8.9,3.4 -22.2,7.6 -46.8,8.7 -26.6,1.2 -34.5,1.5 -101.8,1.5 -67.3,0 -75.2,-0.3 -101.8,-1.5 -24.6,-1.1 -37.9,-5.2 -46.8,-8.7 -11.8,-4.6 -20.2,-10 -29,-18.8 -8.8,-8.8 -14.3,-17.2 -18.8,-29 -3.4,-8.9 -7.6,-22.2 -8.7,-46.8 -1.2,-26.6 -1.5,-34.5 -1.5,-101.8 0,-67.3 0.3,-75.2 1.5,-101.8 1.1,-24.6 5.2,-37.9 8.7,-46.8 4.6,-11.800003 10,-20.200003 18.8,-29.000003 8.8,-8.8 17.2,-14.3 29,-18.8 8.9,-3.4 22.2,-7.6 46.8,-8.7 26.6,-1.3 34.5,-1.5 101.8,-1.5 m 0,-45.4000001 c -68.4,0 -77,0.3 -103.9,1.5 -26.8,1.2 -45.1,5.5 -61.1,11.7000001 -16.6,6.4 -30.6,15.1 -44.6,29.1 -14,14 -22.6,28.1 -29.1,44.6 C 7,102.9 2.7,121.2 1.5,148.1 0.3,174.9 0,183.5 0,251.9 c 0,68.4 0.3,77 1.5,103.9 1.2,26.8 5.5,45.1 11.7,61.2 6.4,16.6 15.1,30.6 29.1,44.6 14,14 28.1,22.6 44.6,29.1 16,6.2 34.3,10.5 61.2,11.7 26.9,1.2 35.4,1.5 103.9,1.5 68.5,0 77,-0.3 103.9,-1.5 26.8,-1.2 45.1,-5.5 61.2,-11.7 16.6,-6.4 30.6,-15.1 44.6,-29.1 14,-14 22.6,-28.1 29.1,-44.6 6.2,-16 10.5,-34.3 11.7,-61.2 1.2,-26.9 1.5,-35.4 1.5,-103.9 0,-68.5 -0.3,-77 -1.5,-103.9 -1.2,-26.8 -5.5,-45.1 -11.7,-61.200003 -6.4,-16.6 -15.1,-30.6 -29.1,-44.6 -14,-14 -28.1,-22.6 -44.6,-29.1 -16,-6.2000001 -34.3,-10.5000001 -61.2,-11.7000001 -27,-1.1 -35.6,-1.4 -104,-1.4 l 0,0 z" /><path
       style="fill:#ffffff;fill-opacity:1"
       id="path7"
       d="m 251.9,122.5 c -71.4,0 -129.4,57.9 -129.4,129.4 0,71.5 58,129.4 129.4,129.4 71.4,0 129.4,-58 129.4,-129.4 0,-71.4 -58,-129.4 -129.4,-129.4 z m 0,213.4 c -46.4,0 -84,-37.6 -84,-84 0,-46.4 37.6,-84 84,-84 46.4,0 84,37.6 84,84 0,46.4 -37.6,84 -84,84 z" /><circle
       style="fill:#ffffff;fill-opacity:1"
       id="circle9"
       r="30.200001"
       cy="117.39999"
       cx="386.39999" /></g></svg>