<?xml version="1.0" encoding="utf-8"?>
<!-- Generator: Adobe Illustrator 16.0.4, SVG Export Plug-In . SVG Version: 6.00 Build 0)  -->
<!DOCTYPE svg PUBLIC "-//W3C//DTD SVG 1.1//EN" "http://www.w3.org/Graphics/SVG/1.1/DTD/svg11.dtd">
<svg version="1.1" id="图层_1" xmlns="http://www.w3.org/2000/svg" xmlns:xlink="http://www.w3.org/1999/xlink" x="0px" y="0px"
	 width="595.28px" height="595.28px" viewBox="0 0 595.28 595.28" enable-background="new 0 0 595.28 595.28" xml:space="preserve">
<g>
	<path fill="#EA5504" d="M41.144,295.173c5.533,28.106,29.215,39.838,29.215,39.838c10.623,0.441,18.259-0.112,27.886-4.76
		c4.282-2.068,8.452-2.443,14.718,0.111c7.82,3.187,5.644,12.836,5.644,12.836c15.556-5.081,22.645-16.062,25.517-22.269
		c1.151-3.404,4.582-4.732,4.582-4.732s-1.839-0.11-2.877,0.222c-2.412,1.407-4.648,1.33-5.866,0.553
		c-1.462-0.934-1.327-3.237-1.327-3.237c-2.762-2.219-3.458-3.208-2.905-5.976c0.71-3.555,4.282-3.406,4.282-3.406
		c5.436-4.383,8.361,2.219,8.361,2.219c-1.328-0.775-3.486-1.107-5.257,0.108c-1.77,1.218-3.154,3.984-1.162,6.391
		c1.362,1.646,4.739,1.935,7.333,0.743c3.07-2.042,3.841-6.084,3.873-7.574c0.146-6.952-5.783-10.403-5.783-10.403
		c-7.581-4.205-14.219-1.881-18.203,1.606c-4.087,3.576-3.984,6.142-4.98,9.793c-0.996,3.652-2.87,5.783-4.11,7.044
		c-5.378,5.46-19.406,5.46-19.406,5.46c-31.87-2.656-35.411-30.986-35.411-30.986c-4.56-36.297,29.69-42.465,33.198-42.438
		c3.445,0.026,1.328,1.162,1.328,1.162c-17.526,1.328-26.392,13.112-26.392,13.112c11.619-10.125,21.209-7.787,21.209-7.787
		c8.944,1.929,11.047-1.755,11.047-1.755c1.929-5.435-2.455-8.066-2.455-8.066c-9.207-3.506-11.82-15.424-11.82-15.424
		s-34.526,4.87-44.292,32.434c-4.735,11.398,0.249,21.126,0.249,21.126C53.3,295.396,41.144,295.173,41.144,295.173z
		 M52.585,258.479c0,0,11.286-19.423,36.694-25.414c0.334,1.354,1.329,2.467,1.329,2.467S70.326,238.981,52.585,258.479z
		 M44.828,298.781c0,0,12.05,20.112,16.232,23.371C61.06,322.151,49.033,315.221,44.828,298.781z"/>
	<path fill="#EA5504" d="M105.043,330.283c2.49-0.303,6.267,0.747,8.805,2.735c2.788,2.184,4.178,5.813,2.632,10.161
		c-2.952,8.311-15.227,6.837-16.331,0.25c-0.909-5.432,2.862-8.525,7.39-6.649c2.163,0.896,3,3.248,2.435,4.87
		c-0.62,1.773-2.87,3.451-2.87,3.451c2.979,0.2,4.566-1.448,5.304-2.678c1.522-2.536-0.581-5.837-1.66-6.308
		c-9.959-5.644-13.704,5.967-13.704,5.967c-14.571,0.141-25.402-5.716-25.402-5.716s7.349,1.277,15.979-0.26
		C96.253,334.566,99.794,330.915,105.043,330.283z"/>
	<path fill="#EA5504" d="M41.96,283.986c0,0,2.364,2.247,1.011,4.55c0,0-1.482,1.931-3.719,0.055c0,0,2.578,4.748,5.199-0.575
		c0,0,1.467-4.586-3.837-5.968c0,0,0.612-11.765,3.183-13.912c0,0-0.71,6.979,1.216,11.29c1.926,4.312,4.209,9.993-0.267,13.224
		c0,0-6.161,2.576-7.822-3.822C36.925,288.827,35.763,282.668,41.96,283.986z"/>
	<path fill="#EA5504" d="M75.61,229.182c-5.362,4.076-13.187,3.157-13.717-2.84c0,0-0.332-3.929,2.435-5.478
		c2.118-1.186,5.102-0.462,5.496-0.274c0.867,0.412,3.204,1.865,2.492,4.168c-0.712,2.302-2.593,2.414-3.589,2.165
		c-1.215-0.304-1.965-1.716-1.534-3.001c0,0,0.062-0.43-0.126-0.624c-0.189-0.195-0.625-0.152-0.692-0.055
		c-0.49,0.707-1.371,2.632,0.498,4.261c0,0,2.425,2.204,8.737-0.953c0,0,5.611-2.806,13.502-0.526
		C89.113,226.025,80.974,225.106,75.61,229.182z"/>
	<path fill="#EA5504" d="M72.595,225.928c0,0,2.068-2.333-0.531-4.72c0,0,7.832,0.046,14.01,3.544
		C86.074,224.752,77.421,222.639,72.595,225.928z"/>
	<path fill="#EA5504" d="M101.976,239.651c0,0-6.441-2.713-8.545-15.689c0,0,3.285,9.903,12.753,11.656c0,0,1.3,0.405,2.739,0.461
		c1.439,0.056,2.379-0.221,2.379-0.221s3.227,0.421,4.979,3.929c0,0,0.481,1.077-0.221,2.656c0,0,2.749,0.014,4.502,1.417
		c1.753,1.403,3.478,4.267,5.961,5.962c2.483,1.695,7.716,4.559,14.554,2.981c0,0,3.332-0.702,2.806,3.156
		c0,0-0.175,4.208-8.767,5.962c0,0,5.786-2.981,0.175-5.085c-5.611-2.104-14.729-6.312-21.217-2.631c0,0-7.54,3.683-13.151,0.702
		c0,0,10.521-1.403,8.241-9.294C109.166,245.613,107.938,241.756,101.976,239.651z"/>
	<path fill="#EA5504" d="M151.601,235.794c-1.21-1.083-7.54-4.035-8.066,5.084c0,0-7.887,4.275-13.419-0.317
		c-3.531-2.93-5.865-2.103-5.146-6.032c0,0,0.162-0.02,0.424-0.044c-0.022,0.122-0.037,0.247-0.037,0.376
		c0,1.13,0.917,2.048,2.047,2.048s2.048-0.917,2.048-2.048c0-0.119-0.016-0.234-0.035-0.348c1.017,0.137,1.969,0.412,2.545,0.929
		c0,0-1.182,0.139-1.625,1.467c-0.229,0.686,0.149,1.724,0.923,2.391c1.878,1.616,10.17,1.929,9.645-4.91
		c0,0,0.138-3.637-4.033-4.033s-7.456,2.079-8.941,0.479c-1.486-1.599-1.245-4.025-3.071-5.934c-0.794-0.831-1.494-1.619-3.006-2.27
		c-1.79-0.77-2.057-2.295-2.057-2.295s-0.664,1.992,0.422,3.073c1.767,1.758,1.524,5.78-1.583,5.895c0,0-2.389-0.136-2.74-6.975
		c0,0-2.324-9.628-6.972-7.802c-1.663,0.653-1.162,3.818,1.119,6.711c2.028,2.572-0.539,6.07-4.209,4.91
		c-3.671-1.16-5.236-7.557-6.538-9.878c-1.909-3.403-4.704-6.441-6.557-4.896c-1.494,1.245-1.669,4.016,1.743,9.71
		c2.104,3.51,3.321,6.81,6.968,9.799c3.435,2.816,6.533,3.094,8.943,2.806c3.006-0.36,6.838,1.929,8.592,6.312
		c0,0,3.332,1.754,5.962,4.208c2.63,2.456,9.54,6.421,19.99,4.032C156.022,245.71,153.465,237.463,151.601,235.794z"/>
	<path fill="#EA5504" d="M89.613,282.778"/>
	<g>
		<path fill="#00A0E9" d="M342.682,206.898h19.604c2.576,0,5.021,0.25,7.335,0.75c2.312,0.501,4.339,1.337,6.08,2.505
			c1.739,1.168,3.125,2.743,4.149,4.722c1.027,1.98,1.537,4.448,1.537,7.405c0,3.577-0.927,6.618-2.789,9.123
			c-1.858,2.503-4.579,4.089-8.155,4.757l12.879,21.392H369.94l-10.587-20.247h-5.511v20.247h-11.161V206.898z M353.843,227.861
			h6.582c1.002,0,2.064-0.036,3.185-0.107c1.121-0.072,2.135-0.286,3.04-0.644c0.906-0.358,1.658-0.917,2.256-1.681
			c0.596-0.762,0.895-1.836,0.895-3.22c0-1.288-0.263-2.313-0.788-3.076c-0.525-0.762-1.194-1.348-2.005-1.754
			c-0.812-0.404-1.743-0.678-2.789-0.822c-1.05-0.144-2.075-0.216-3.076-0.216h-7.299V227.861z"/>
		<path fill="#00A0E9" d="M409.505,253.187h-0.145c-1.19,1.86-2.778,3.196-4.758,4.007c-1.979,0.81-4.066,1.216-6.259,1.216
			c-1.62,0-3.185-0.227-4.688-0.68c-1.501-0.453-2.825-1.134-3.97-2.04c-1.144-0.905-2.051-2.026-2.717-3.362
			c-0.671-1.333-1.003-2.885-1.003-4.65c0-2.003,0.367-3.695,1.109-5.079c0.738-1.383,1.741-2.529,3.002-3.435
			c1.265-0.906,2.708-1.61,4.332-2.11c1.62-0.501,3.302-0.871,5.041-1.11c1.743-0.238,3.48-0.38,5.224-0.429
			c1.741-0.047,3.351-0.071,4.83-0.071c0-1.907-0.68-3.422-2.041-4.542c-1.358-1.121-2.968-1.682-4.828-1.682
			c-1.766,0-3.374,0.371-4.83,1.108c-1.454,0.741-2.753,1.754-3.896,3.041l-5.726-5.866c2.005-1.859,4.34-3.256,7.012-4.186
			c2.67-0.93,5.438-1.394,8.3-1.394c3.148,0,5.735,0.393,7.764,1.18c2.026,0.787,3.648,1.944,4.86,3.47
			c1.22,1.527,2.064,3.398,2.541,5.616c0.476,2.219,0.718,4.783,0.718,7.691v17.671h-9.873V253.187z M406.856,242.312
			c-0.811,0-1.822,0.036-3.038,0.107c-1.219,0.071-2.388,0.275-3.508,0.609c-1.121,0.334-2.075,0.834-2.861,1.502
			c-0.787,0.668-1.181,1.599-1.181,2.791c0,1.288,0.549,2.242,1.646,2.861c1.098,0.621,2.241,0.931,3.434,0.931
			c1.05,0,2.064-0.143,3.04-0.431c0.979-0.285,1.848-0.69,2.613-1.215c0.761-0.524,1.369-1.192,1.824-2.004
			c0.45-0.811,0.68-1.763,0.68-2.861v-2.29H406.856z"/>
		<path fill="#00A0E9" d="M449.64,234.014c-0.523-0.763-1.266-1.395-2.218-1.896c-0.956-0.5-1.979-0.751-3.076-0.751
			c-2.718,0-4.832,0.812-6.333,2.434c-1.501,1.621-2.252,3.744-2.252,6.367s0.751,4.745,2.252,6.366
			c1.501,1.622,3.615,2.433,6.333,2.433c1.19,0,2.216-0.262,3.076-0.788c0.86-0.524,1.597-1.144,2.218-1.86l7.081,7.441
			c-1.669,1.717-3.636,2.92-5.901,3.612c-2.265,0.691-4.423,1.038-6.474,1.038c-2.674,0-5.188-0.43-7.549-1.29
			c-2.36-0.858-4.412-2.083-6.153-3.683c-1.742-1.596-3.11-3.517-4.113-5.759c-1-2.241-1.501-4.745-1.501-7.511
			s0.501-5.271,1.501-7.513c1.003-2.241,2.371-4.161,4.113-5.759c1.741-1.597,3.793-2.825,6.153-3.684
			c2.361-0.859,4.875-1.288,7.549-1.288c2.051,0,4.209,0.347,6.474,1.037c2.266,0.693,4.232,1.896,5.901,3.613L449.64,234.014z"/>
		<path fill="#00A0E9" d="M493.497,251.542c-1.721,2.194-3.89,3.888-6.511,5.079c-2.624,1.192-5.345,1.789-8.157,1.789
			c-2.671,0-5.186-0.43-7.548-1.29c-2.361-0.858-4.411-2.083-6.154-3.683c-1.739-1.596-3.11-3.517-4.113-5.759
			c-1-2.241-1.502-4.745-1.502-7.511s0.502-5.271,1.502-7.513c1.003-2.241,2.374-4.161,4.113-5.759
			c1.743-1.597,3.793-2.825,6.154-3.684c2.362-0.859,4.877-1.288,7.548-1.288c2.48,0,4.734,0.429,6.762,1.288
			c2.026,0.859,3.746,2.087,5.151,3.684c1.406,1.599,2.492,3.519,3.255,5.759c0.764,2.243,1.145,4.747,1.145,7.513v3.362h-24.897
			c0.43,2.05,1.358,3.684,2.789,4.9c1.433,1.216,3.197,1.823,5.294,1.823c1.767,0,3.255-0.392,4.471-1.18
			c1.22-0.787,2.281-1.799,3.187-3.039L493.497,251.542z M484.407,236.231c0.047-1.812-0.548-3.362-1.786-4.65
			c-1.241-1.288-2.84-1.932-4.792-1.932c-1.194,0-2.244,0.191-3.15,0.573c-0.905,0.383-1.682,0.871-2.322,1.467
			c-0.644,0.597-1.149,1.287-1.506,2.075c-0.354,0.786-0.56,1.609-0.606,2.467H484.407z"/>
		<path fill="#00A0E9" d="M501.651,222.781h10.729v5.581h0.145c1.146-2.146,2.504-3.756,4.078-4.83
			c1.573-1.072,3.554-1.609,5.939-1.609c0.619,0,1.239,0.023,1.858,0.071c0.62,0.048,1.192,0.144,1.718,0.286v9.802
			c-0.764-0.239-1.514-0.418-2.254-0.537c-0.741-0.118-1.514-0.18-2.324-0.18c-2.051,0-3.675,0.287-4.866,0.86
			c-1.192,0.572-2.11,1.372-2.755,2.396c-0.644,1.026-1.061,2.253-1.25,3.684c-0.191,1.431-0.289,3.005-0.289,4.723v14.523h-10.729
			V222.781z"/>
		<path fill="#00A0E9" d="M550.444,233.012c-1.575-1.955-3.648-2.934-6.225-2.934c-0.906,0-1.787,0.215-2.647,0.645
			c-0.858,0.428-1.288,1.169-1.288,2.217c0,0.86,0.438,1.492,1.324,1.896c0.881,0.405,2.005,0.763,3.361,1.073
			c1.36,0.311,2.814,0.644,4.364,1.001c1.551,0.357,3.005,0.918,4.365,1.682s2.479,1.802,3.363,3.112
			c0.882,1.312,1.322,3.064,1.322,5.259c0,2.242-0.489,4.088-1.467,5.543c-0.979,1.456-2.229,2.625-3.755,3.506
			s-3.246,1.502-5.151,1.859c-1.909,0.358-3.792,0.537-5.654,0.537c-2.433,0-4.886-0.347-7.367-1.038
			c-2.48-0.692-4.577-1.921-6.297-3.685l6.512-7.227c1.003,1.243,2.111,2.184,3.327,2.828s2.634,0.964,4.256,0.964
			c1.24,0,2.362-0.178,3.361-0.535c1.004-0.358,1.503-1.013,1.503-1.967c0-0.905-0.441-1.585-1.322-2.039
			c-0.884-0.453-2.003-0.835-3.363-1.146c-1.358-0.309-2.814-0.644-4.362-1.002c-1.552-0.356-3.006-0.894-4.366-1.608
			c-1.358-0.715-2.479-1.728-3.363-3.04c-0.883-1.312-1.322-3.066-1.322-5.26c0-2.05,0.416-3.815,1.254-5.293
			c0.831-1.478,1.931-2.695,3.291-3.649c1.356-0.954,2.919-1.656,4.688-2.11c1.761-0.453,3.547-0.68,5.362-0.68
			c2.287,0,4.603,0.335,6.938,1.001c2.339,0.668,4.318,1.859,5.94,3.577L550.444,233.012z"/>
	</g>
	<path fill="#EA5504" d="M206.521,333.676h-0.313c-2.597,4.048-6.052,6.959-10.361,8.725c-4.312,1.765-8.857,2.649-13.635,2.649
		c-3.533,0-6.935-0.495-10.206-1.479c-3.272-0.985-6.156-2.471-8.648-4.442c-2.492-1.973-4.468-4.413-5.921-7.325
		c-1.455-2.905-2.181-6.283-2.181-10.128c0-4.364,0.804-8.049,2.416-11.062c1.609-3.014,3.79-5.507,6.543-7.48
		c2.751-1.971,5.896-3.508,9.428-4.598c3.529-1.09,7.192-1.895,10.985-2.414c3.791-0.52,7.582-0.83,11.374-0.935
		c3.792-0.104,7.297-0.157,10.519-0.157c0-4.153-1.481-7.451-4.44-9.894c-2.962-2.441-6.468-3.664-10.52-3.664
		c-3.845,0-7.35,0.807-10.517,2.416c-3.17,1.612-5.999,3.818-8.492,6.623l-12.467-12.778c4.364-4.051,9.451-7.089,15.271-9.115
		c5.816-2.026,11.843-3.039,18.076-3.039c6.855,0,12.49,0.857,16.907,2.571c4.413,1.714,7.946,4.234,10.595,7.558
		c2.649,3.325,4.493,7.401,5.533,12.232c1.037,4.83,1.557,10.415,1.557,16.751v1.884c0,0-5.027,14.514-12.126,20.987
		c-3.228,2.942-5.303,5.903-5.941,8.83c-1.083,4.973,1.328,9.352,1.328,9.352s-2.49-1.494-3.486-2.932
		c-0.868-1.256-1.277-3.598-1.277-3.598V333.676z M200.755,309.988c-1.767,0-3.973,0.078-6.623,0.235
		c-2.648,0.155-5.194,0.599-7.635,1.324c-2.442,0.726-4.519,1.818-6.232,3.271c-1.715,1.456-2.572,3.48-2.572,6.079
		c0,2.804,1.194,4.882,3.584,6.231c2.389,1.35,4.881,2.028,7.479,2.028c2.284,0,4.493-0.313,6.624-0.938
		c2.127-0.62,4.024-1.504,5.687-2.648c1.661-1.142,2.985-2.595,3.973-4.362c0.987-1.765,1.481-3.842,1.481-6.232v-4.987H200.755z"/>
	<path fill="#EA5504" d="M294.247,286.147h-20.569v25.244c0,2.08,0.103,3.973,0.312,5.688c0.207,1.716,0.675,3.195,1.403,4.441
		c0.727,1.247,1.842,2.209,3.35,2.882c1.504,0.679,3.506,1.014,5.999,1.014c1.248,0,2.882-0.128,4.909-0.39
		c2.026-0.26,3.557-0.855,4.597-1.791v19.48c-2.599,0.931-5.297,1.555-8.104,1.865c-2.804,0.314-5.558,0.47-8.258,0.47
		c-3.948,0-7.584-0.419-10.907-1.247c-3.326-0.83-6.233-2.156-8.726-3.973c-2.494-1.819-4.442-4.181-5.844-7.093
		c-1.403-2.905-2.103-6.438-2.103-10.595v-35.996h-14.959v-18.699h14.959v-22.437l23.373,13.279v9.158h20.569V286.147z"/>
	<path fill="#EA5504" d="M330.792,238.656v39.077h0.31c0.521-1.453,1.402-2.907,2.649-4.362c1.246-1.454,2.751-2.752,4.518-3.896
		c1.767-1.141,3.843-2.077,6.235-2.805c2.389-0.725,4.983-1.091,7.789-1.091c5.924,0,10.698,0.911,14.335,2.728
		c3.638,1.818,6.467,4.338,8.493,7.557c2.026,3.221,3.402,7.012,4.13,11.374c0.726,4.364,1.09,9.091,1.09,14.18v41.759h-23.373
		v-37.085c0-2.18-0.077-4.438-0.234-6.777c-0.155-2.338-0.624-4.492-1.401-6.465c-0.778-1.973-1.975-3.585-3.586-4.83
		c-1.609-1.249-3.92-1.872-6.932-1.872c-3.013,0-5.454,0.545-7.325,1.637c-1.867,1.091-3.298,2.547-4.283,4.363
		c-0.989,1.818-1.637,3.872-1.949,6.156c-0.312,2.286-0.465,4.675-0.465,7.168v37.706h-23.375v-117.8L330.792,238.656z"/>
	<path fill="#EA5504" d="M444.384,333.676h-0.312c-2.599,4.048-6.052,6.959-10.362,8.725c-4.312,1.765-8.856,2.649-13.635,2.649
		c-3.532,0-6.934-0.495-10.205-1.479c-3.272-0.985-6.156-2.471-8.649-4.442c-2.491-1.973-4.468-4.413-5.922-7.325
		c-1.454-2.905-2.18-6.283-2.18-10.128c0-4.364,0.805-8.049,2.414-11.062c1.609-3.014,3.791-5.507,6.543-7.48
		c2.753-1.971,5.896-3.508,9.429-4.598c3.531-1.09,7.192-1.895,10.986-2.414c3.791-0.52,7.582-0.83,11.374-0.935
		c3.791-0.104,7.299-0.157,10.52-0.157c0-4.153-1.481-7.451-4.442-9.894c-2.961-2.441-6.467-3.664-10.518-3.664
		c-3.845,0-7.351,0.807-10.519,2.416c-3.17,1.612-5.999,3.818-8.491,6.623l-12.467-12.778c4.364-4.051,9.45-7.089,15.271-9.115
		c5.815-2.026,11.844-3.039,18.075-3.039c6.856,0,12.489,0.857,16.906,2.571s7.95,4.234,10.597,7.558
		c2.65,3.325,4.491,7.401,5.532,12.232c1.037,4.83,1.559,10.415,1.559,16.751v38.485h-21.503V333.676z M438.619,309.988
		c-1.769,0-3.976,0.078-6.626,0.235c-2.648,0.155-5.192,0.599-7.634,1.324s-4.52,1.818-6.233,3.271
		c-1.713,1.456-2.569,3.48-2.569,6.079c0,2.804,1.19,4.882,3.583,6.231c2.389,1.35,4.883,2.028,7.48,2.028
		c2.284,0,4.493-0.313,6.622-0.938c2.129-0.62,4.023-1.504,5.687-2.648c1.66-1.142,2.984-2.595,3.974-4.362
		c0.984-1.765,1.481-3.842,1.481-6.232v-4.987H438.619z"/>
	<path fill="#EA5504" d="M212.316,334.583c-1.007,2.138-1.188,5.837-0.158,8.698c1.129,3.142,3.97,5.463,8.324,5.369
		c8.317-0.182,10.633-11.615,5.061-14.553c-4.597-2.429-8.486,0.036-8.147,4.647c0.164,2.203,2.021,3.648,3.641,3.623
		c1.772-0.027,3.943-1.548,3.943-1.548c-0.705,2.729-2.651,3.659-3.97,3.955c-2.723,0.613-5.057-2.246-5.159-3.353
		c-2.104-10.595,9.406-10.508,9.406-10.508c3.011-8.817,3.047-16.913,2.756-21.211c-0.716,2.719-3.57,8.749-5.279,11.792
		C219.972,326.985,214.438,330.07,212.316,334.583z"/>
	<g>
		<path fill="#EA5504" d="M519.644,366.239c1.452-3.114,2.961-6.701,4.518-10.747l34.281-88.044h-23.999l-16.669,50.021h-0.312
			l-19.479-50.021h-25.143l44.632,102.619C518.267,368.884,518.999,367.617,519.644,366.239z"/>
	</g>
	<path fill="#EA5504" d="M132.107,293.041c0,0,4.233-6.059,9.876-6.723c2.242-0.263,3.945,0.115,5.271,0.042
		c1.225-0.067,2.114-0.566,3.111-1.245c0,0-0.457,1.618-2.323,2.49c-1.13,0.528-2.158-0.166-2.573,0.913
		c-0.415,1.079,0.316,1.777,1.577,2.033c1.727,0.352,3.31-1.718,3.983-3.112c1.743-3.61,6.308-3.154,9.461-1.785
		c0,0-3.099-0.308-4.482,0.872c-0.863,0.738-1.494,1.909-0.747,3.32c0.919,1.736,0.542,3.559,0.163,4.626
		c-0.205,0.578-0.474,0.561-0.474,0.873c0,0.311,0.261,0.473,0.581,0.352c0.996-0.374,0.374-1.432,0.664-2.303
		c0.417-1.251,1.266-1.764,2.469-1.598c0,0-1.058,0.032-1.474,1.183c-0.241,0.667-0.083,1.921,0.146,3.216
		c0.788,4.46-1.66,8.134-2.656,9.544C155.179,299.598,148.291,287.646,132.107,293.041z"/>
	<g>
		<path fill="#EA5504" d="M502.822,353.878c-5.922,3.604-11.952,3.042-14.056,3.042c0.058,0.002,1.018,0.666,1.494,0.886
			c1.837,0.076,3.266,0.609,3.93,2.712c0.869,2.751-0.83,3.874-0.83,3.874c1.494,1.825,1.418,4.092-0.609,5.808
			c-2.609,2.212-6.113-0.148-6.113-0.148c-6.835,1.145-4.881-6.54-4.881-6.54c0.529,1.35,1.918,3.148,4.354,3.036
			c2.493-0.113,4.207-0.884,4.647-4.426c-0.715-5.018-5.464-5.929-9.054-4.218c-8.985,5.239-5.505,14.127-5.505,14.127
			c3.138,7.552,9.407,9.728,14.395,9.486c10.668-0.238,19.19-6.102,24.543-11.128l-8.479-19.501
			C505.619,351.924,504.363,352.938,502.822,353.878z"/>
	</g>
</g>
</svg>
