<?xml version="1.0" encoding="UTF-8" standalone="no"?>
<!-- Generator: Adobe Illustrator 16.0.4, SVG Export Plug-In . SVG Version: 6.00 Build 0)  -->

<svg
   xmlns:dc="http://purl.org/dc/elements/1.1/"
   xmlns:cc="http://creativecommons.org/ns#"
   xmlns:rdf="http://www.w3.org/1999/02/22-rdf-syntax-ns#"
   xmlns:svg="http://www.w3.org/2000/svg"
   xmlns="http://www.w3.org/2000/svg"
   xmlns:sodipodi="http://sodipodi.sourceforge.net/DTD/sodipodi-0.dtd"
   xmlns:inkscape="http://www.inkscape.org/namespaces/inkscape"
   version="1.1"
   id="图层_1"
   x="0px"
   y="0px"
   width="451.38599"
   height="451.38599"
   viewBox="0 0 451.38596 451.38596"
   enable-background="new 0 0 595.28 595.28"
   xml:space="preserve"
   inkscape:version="0.91 r13725"
   sodipodi:docname="logo-icon.svg"
   inkscape:export-filename="/Users/zguard-parent/Dev/GitHub/cathay-racers-website/assets/img/logo/logo-icon.png"
   inkscape:export-xdpi="199.38589"
   inkscape:export-ydpi="199.38589"><metadata
     id="metadata79"><rdf:RDF><cc:Work
         rdf:about=""><dc:format>image/svg+xml</dc:format><dc:type
           rdf:resource="http://purl.org/dc/dcmitype/StillImage" /><dc:title></dc:title></cc:Work></rdf:RDF></metadata><defs
     id="defs77" /><sodipodi:namedview
     pagecolor="#ffffff"
     bordercolor="#666666"
     borderopacity="1"
     objecttolerance="10"
     gridtolerance="10"
     guidetolerance="10"
     inkscape:pageopacity="0"
     inkscape:pageshadow="2"
     inkscape:window-width="1266"
     inkscape:window-height="723"
     id="namedview75"
     showgrid="false"
     inkscape:zoom="0.79290414"
     inkscape:cx="159.25207"
     inkscape:cy="224.94411"
     inkscape:window-x="10"
     inkscape:window-y="24"
     inkscape:window-maximized="0"
     inkscape:current-layer="图层_1" /><g
     id="g4281"><g
       transform="translate(-63.559034,-71.379)"
       id="g3"><path
         id="path5"
         d="m 174.356,327.869 c 10.704,54.377 56.519,77.074 56.519,77.074 20.551,0.854 35.324,-0.215 53.948,-9.209 8.285,-4.002 16.353,-4.727 28.476,0.213 15.128,6.164 10.918,24.834 10.918,24.834 30.095,-9.826 43.808,-31.074 49.365,-43.08 2.227,-6.586 8.864,-9.152 8.864,-9.152 0,0 -3.559,-0.215 -5.565,0.426 -4.667,2.723 -8.992,2.572 -11.349,1.07 -2.829,-1.805 -2.566,-6.264 -2.566,-6.264 -5.345,-4.295 -6.692,-6.207 -5.62,-11.562 1.374,-6.877 8.284,-6.588 8.284,-6.588 10.515,-8.48 16.174,4.293 16.174,4.293 -2.569,-1.502 -6.742,-2.145 -10.17,0.209 -3.423,2.355 -6.102,7.707 -2.248,12.361 2.635,3.186 9.168,3.744 14.188,1.441 5.937,-3.953 7.43,-11.771 7.49,-14.656 0.282,-13.449 -11.188,-20.127 -11.188,-20.127 -14.665,-8.129 -27.509,-3.635 -35.215,3.109 -7.909,6.916 -7.709,11.881 -9.635,18.945 -1.925,7.064 -5.551,11.188 -7.952,13.629 -10.405,10.561 -37.542,10.561 -37.542,10.561 -61.656,-5.137 -68.505,-59.945 -68.505,-59.945 -8.822,-70.221 57.438,-82.156 64.224,-82.1 6.666,0.05 2.57,2.25 2.57,2.25 -33.906,2.569 -51.059,25.37 -51.059,25.37 22.478,-19.588 41.032,-15.066 41.032,-15.066 17.302,3.729 21.372,-3.397 21.372,-3.397 3.73,-10.513 -4.749,-15.604 -4.749,-15.604 -17.811,-6.784 -22.868,-29.837 -22.868,-29.837 0,0 -66.792,9.42 -85.687,62.745 -9.16,22.05 0.481,40.871 0.481,40.871 11.529,27.62 -11.987,27.186 -11.987,27.186 z m 22.132,-70.987 c 0,0 21.836,-37.576 70.988,-49.166 0.648,2.619 2.572,4.773 2.572,4.773 0,0 -39.238,6.675 -73.56,44.393 z m -15.006,77.97 c 0,0 23.31,38.908 31.402,45.213 0.001,-10e-4 -23.267,-13.407 -31.402,-45.213 z"
         inkscape:connector-curvature="0"
         style="fill:#ea5504" /><path
         id="path7"
         d="m 297.976,395.799 c 4.817,-0.59 12.126,1.443 17.035,5.289 5.392,4.225 8.081,11.248 5.093,19.658 -5.712,16.08 -29.459,13.227 -31.594,0.482 -1.758,-10.506 5.539,-16.492 14.297,-12.861 4.185,1.734 5.804,6.281 4.709,9.42 -1.196,3.432 -5.548,6.676 -5.548,6.676 5.762,0.391 8.833,-2.803 10.259,-5.18 2.945,-4.908 -1.124,-11.291 -3.211,-12.201 -19.27,-10.92 -26.513,11.539 -26.513,11.539 -28.188,0.277 -49.142,-11.055 -49.142,-11.055 0,0 14.217,2.473 30.914,-0.504 16.695,-2.98 23.546,-10.044 33.701,-11.263 z"
         inkscape:connector-curvature="0"
         style="fill:#ea5504" /><path
         id="path9"
         d="m 175.934,306.229 c 0,0 4.573,4.35 1.957,8.803 0,0 -2.869,3.734 -7.195,0.105 0,0 4.986,9.186 10.058,-1.111 0,0 2.839,-8.871 -7.422,-11.547 0,0 1.182,-22.759 6.158,-26.912 0,0 -1.374,13.501 2.353,21.838 3.727,8.343 8.144,19.335 -0.516,25.585 0,0 -11.919,4.98 -15.132,-7.391 -0.002,0.001 -2.25,-11.919 9.739,-9.37 z"
         inkscape:connector-curvature="0"
         style="fill:#ea5504" /><path
         id="path11"
         d="m 241.034,200.206 c -10.374,7.879 -25.511,6.105 -26.536,-5.496 0,0 -0.644,-7.603 4.708,-10.596 4.098,-2.295 9.871,-0.896 10.632,-0.531 1.678,0.795 6.201,3.611 4.822,8.062 -1.378,4.456 -5.017,4.672 -6.943,4.191 -2.353,-0.591 -3.802,-3.324 -2.968,-5.809 0,0 0.119,-0.833 -0.244,-1.21 -0.365,-0.375 -1.209,-0.292 -1.339,-0.104 -0.947,1.369 -2.651,5.091 0.963,8.243 0,0 4.691,4.262 16.903,-1.843 0,0 10.854,-5.429 26.121,-1.016 0.002,0.002 -15.743,-1.779 -26.119,6.109 z"
         inkscape:connector-curvature="0"
         style="fill:#ea5504" /><path
         id="path13"
         d="m 235.2,193.91 c 0,0 4.001,-4.516 -1.027,-9.135 0,0 15.15,0.092 27.105,6.857 0,0 -16.742,-4.083 -26.078,2.278 z"
         inkscape:connector-curvature="0"
         style="fill:#ea5504" /><path
         id="path15"
         d="m 292.042,220.459 c 0,0 -12.461,-5.252 -16.532,-30.357 0,0 6.355,19.163 24.675,22.554 0,0 2.514,0.787 5.298,0.89 2.783,0.111 4.601,-0.425 4.601,-0.425 0,0 6.244,0.819 9.637,7.603 0,0 0.93,2.08 -0.43,5.139 0,0 5.317,0.023 8.711,2.735 3.392,2.717 6.729,8.258 11.532,11.537 4.806,3.278 14.93,8.82 28.158,5.77 0,0 6.445,-1.362 5.429,6.101 0,0 -0.341,8.143 -16.961,11.537 0,0 11.193,-5.77 0.338,-9.839 -10.854,-4.07 -28.496,-12.213 -41.049,-5.091 0,0 -14.586,7.128 -25.441,1.364 0,0 20.352,-2.72 15.944,-17.983 -10e-4,0 -2.375,-7.463 -13.91,-11.535 z"
         inkscape:connector-curvature="0"
         style="fill:#ea5504" /><path
         id="path17"
         d="m 388.047,212.997 c -2.339,-2.096 -14.587,-7.805 -15.605,9.834 0,0 -15.259,8.272 -25.96,-0.609 -6.833,-5.671 -11.347,-4.067 -9.957,-11.67 0,0 0.312,-0.038 0.821,-0.085 -0.044,0.237 -0.071,0.479 -0.071,0.729 0,2.186 1.773,3.959 3.962,3.959 2.185,0 3.961,-1.773 3.961,-3.959 0,-0.232 -0.032,-0.456 -0.069,-0.676 1.967,0.267 3.81,0.795 4.924,1.799 0,0 -2.288,0.27 -3.143,2.836 -0.442,1.33 0.287,3.333 1.785,4.626 3.634,3.126 19.675,3.731 18.658,-9.501 0,0 0.267,-7.033 -7.806,-7.798 -8.067,-0.766 -14.421,4.021 -17.295,0.925 -2.875,-3.094 -2.408,-7.787 -5.938,-11.479 -1.54,-1.606 -2.895,-3.133 -5.816,-4.392 -3.465,-1.486 -3.979,-4.439 -3.979,-4.439 0,0 -1.284,3.853 0.814,5.944 3.418,3.402 2.948,11.18 -3.062,11.403 0,0 -4.621,-0.265 -5.298,-13.495 0,0 -4.497,-18.626 -13.489,-15.093 -3.216,1.263 -2.248,7.387 2.167,12.984 3.922,4.975 -1.044,11.744 -8.144,9.501 -7.103,-2.245 -10.131,-14.624 -12.648,-19.112 -3.695,-6.584 -9.101,-12.464 -12.688,-9.476 -2.889,2.409 -3.227,7.771 3.373,18.788 4.071,6.791 6.428,13.175 13.481,18.958 6.646,5.447 12.638,5.986 17.301,5.427 5.815,-0.697 13.23,3.731 16.623,12.211 0,0 6.444,3.395 11.535,8.141 5.086,4.752 18.453,12.425 38.67,7.803 21.447,-4.899 16.497,-20.852 12.893,-24.084 z"
         inkscape:connector-curvature="0"
         style="fill:#ea5504" /><path
         id="path19"
         d="M 268.125,303.889"
         inkscape:connector-curvature="0"
         style="fill:#ea5504" /><path
         id="path21"
         d="m 350.332,323.746 c 0,0 8.188,-11.717 19.107,-13.004 4.339,-0.51 7.633,0.221 10.195,0.08 2.372,-0.135 4.093,-1.094 6.022,-2.41 0,0 -0.884,3.133 -4.495,4.816 -2.188,1.021 -4.176,-0.318 -4.978,1.77 -0.806,2.084 0.611,3.438 3.05,3.934 3.34,0.68 6.404,-3.326 7.707,-6.021 3.371,-6.986 12.201,-6.102 18.302,-3.453 0,0 -5.995,-0.596 -8.669,1.686 -1.669,1.43 -2.891,3.693 -1.443,6.424 1.775,3.357 1.049,6.883 0.312,8.947 -0.396,1.119 -0.916,1.086 -0.916,1.691 0,0.6 0.505,0.916 1.123,0.68 1.929,-0.723 0.722,-2.766 1.284,-4.457 0.81,-2.42 2.45,-3.41 4.777,-3.09 0,0 -2.045,0.062 -2.85,2.287 -0.468,1.291 -0.161,3.723 0.28,6.223 1.524,8.629 -3.211,15.738 -5.137,18.465 0.964,-11.88 -12.36,-35.002 -43.671,-24.568 z"
         inkscape:connector-curvature="0"
         style="fill:#ea5504" /></g><path
       id="path23"
       d="m 369.73597,230.252 c 0,39.707 -15.983,75.662 -41.84,101.748 0.134,0.082 0.266,0.172 0.391,0.266 27.375,-26.646 44.382,-63.891 44.382,-105.113 0,-81.02 -65.68,-146.702 -146.7,-146.702 -81.02,0 -146.698004,65.682 -146.698004,146.702 0,41.316 17.087,78.64 44.576004,105.298 0.147,-0.07 0.299,-0.135 0.453,-0.197 -26.007004,-26.109 -42.097004,-62.166 -42.097004,-102.002 0,-79.695 64.366004,-144.298 143.767004,-144.298 79.4,0 143.766,64.603 143.766,144.298 z"
       inkscape:connector-curvature="0"
       style="fill:#ea5504" /><g
       transform="translate(-63.559034,-71.379)"
       id="g25"><polygon
         id="polygon27"
         points="477.63,334.188 478.912,341.658 472.2,338.129 465.492,341.658 466.775,334.188 461.346,328.893 468.846,327.805 472.2,321.008 475.558,327.805 483.058,328.893 "
         style="fill:#00a0e9" /><polygon
         id="polygon29"
         points="465.131,374.498 466.412,381.967 459.701,378.443 452.992,381.967 454.274,374.498 448.843,369.205 456.346,368.115 459.701,361.316 463.056,368.115 470.56,369.205 "
         style="fill:#00a0e9" /><polygon
         id="polygon31"
         points="444.177,410.234 445.457,417.709 438.747,414.18 432.034,417.709 433.318,410.234 427.889,404.943 435.393,403.855 438.747,397.053 442.101,403.855 449.604,404.943 "
         style="fill:#00a0e9" /></g><g
       transform="translate(-63.559034,-71.379)"
       id="g33"><polygon
         id="polygon35"
         points="104.906,332.008 103.812,339.508 110.431,335.816 117.225,339.178 115.76,331.74 121.057,326.316 113.527,325.408 110.011,318.695 106.82,325.576 99.349,326.85 "
         style="fill:#00a0e9" /><polygon
         id="polygon37"
         points="117.949,372.084 116.851,379.586 123.473,375.893 130.268,379.254 128.804,371.816 134.098,366.393 126.572,365.488 123.052,358.775 119.864,365.652 112.392,366.93 "
         style="fill:#00a0e9" /><polygon
         id="polygon39"
         points="139.777,407.299 138.68,414.797 145.302,411.104 152.098,414.467 150.631,407.029 155.93,401.607 148.403,400.701 144.88,393.984 141.696,400.867 134.223,402.139 "
         style="fill:#00a0e9" /></g><path
       id="path41"
       d="M 225.68997,0 C 101.04397,0 -3.4e-5,101.047 -3.4e-5,225.697 c 0,75.661 37.235,142.629 94.382,183.575 l -1.155,-4.301 c -54.258,-40.309 -88.713,-103.799 -88.713,-176.588 0,-122.148 99.025004,-221.178 221.177004,-221.178 122.154,0 221.18,99.03 221.18,221.178 0,73.082 -33.927,136.312 -88.567,176.588 l -2.272,4.994 c 57.695,-40.883 95.354,-108.176 95.354,-184.268 C 451.38297,101.047 350.33697,0 225.68997,0 Z"
       inkscape:connector-curvature="0"
       style="fill:#ea5504" /><path
       id="path43"
       d="m 400.85597,344.857 c -65.747,96.254 -197.071,120.986 -293.328,55.24 C 11.271966,334.349 -13.460034,203.021 52.284966,106.771 118.03097,10.513 249.35897,-14.219 345.61097,51.527 c 96.257,65.746 120.992,197.076 55.245,293.33 z"
       inkscape:connector-curvature="0"
       style="fill:none" /><text
       y="85.993782"
       x="-219.41359"
       sodipodi:linespacing="125%"
       style="font-style:normal;font-variant:normal;font-weight:bold;font-stretch:normal;font-size:49.99999416px;line-height:125%;font-family:'Avenir Next';-inkscape-font-specification:'Avenir Next, Bold';text-align:start;writing-mode:lr;text-anchor:start;"
       id="text45"
       transform="matrix(0.10920215,-0.99401956,0.99401956,0.10920215,0,0)"><tspan
         style="font-style:normal;font-variant:normal;font-weight:bold;font-stretch:normal;font-size:49.99999416px;line-height:125%;font-family:'Avenir Next';-inkscape-font-specification:'Avenir Next, Bold';text-align:start;writing-mode:lr;text-anchor:start;fill:#00a0e9;"
         id="tspan47"
         font-size="55.0519"
         y="85.993782"
         x="-219.41359">C</tspan><tspan
         style="font-style:normal;font-variant:normal;font-weight:bold;font-stretch:normal;font-size:49.99999416px;line-height:125%;font-family:'Avenir Next';-inkscape-font-specification:'Avenir Next, Bold';text-align:start;writing-mode:lr;text-anchor:start;fill:#00a0e9;"
         id="tspan49"
         rotate="14.834"
         font-size="55.0519"
         y="86.314774"
         x="-177.15642">A</tspan><tspan
         style="font-style:normal;font-variant:normal;font-weight:bold;font-stretch:normal;font-size:49.99999416px;line-height:125%;font-family:'Avenir Next';-inkscape-font-specification:'Avenir Next, Bold';text-align:start;writing-mode:lr;text-anchor:start;fill:#00a0e9;"
         id="tspan51"
         rotate="28.995001"
         font-size="55.0519"
         y="97.534554"
         x="-136.62721">T</tspan><tspan
         style="font-style:normal;font-variant:normal;font-weight:bold;font-stretch:normal;font-size:49.99999416px;line-height:125%;font-family:'Avenir Next';-inkscape-font-specification:'Avenir Next, Bold';text-align:start;writing-mode:lr;text-anchor:start;fill:#00a0e9;"
         id="tspan53"
         rotate="42.171001"
         font-size="55.0519"
         y="115.1692"
         x="-104.31285">H</tspan><tspan
         style="font-style:normal;font-variant:normal;font-weight:bold;font-stretch:normal;font-size:49.99999416px;line-height:125%;font-family:'Avenir Next';-inkscape-font-specification:'Avenir Next, Bold';text-align:start;writing-mode:lr;text-anchor:start;fill:#00a0e9;"
         id="tspan55"
         rotate="57.001999"
         font-size="55.0519"
         y="143.78964"
         x="-73.213455">A</tspan><tspan
         style="font-style:normal;font-variant:normal;font-weight:bold;font-stretch:normal;font-size:49.99999416px;line-height:125%;font-family:'Avenir Next';-inkscape-font-specification:'Avenir Next, Bold';text-align:start;writing-mode:lr;text-anchor:start;fill:#00a0e9;"
         id="tspan57"
         rotate="71.189003"
         font-size="55.0519"
         y="179.61494"
         x="-50.573906">Y</tspan><tspan
         style="font-style:normal;font-variant:normal;font-weight:bold;font-stretch:normal;font-size:49.99999416px;line-height:125%;font-family:'Avenir Next';-inkscape-font-specification:'Avenir Next, Bold';text-align:start;writing-mode:lr;text-anchor:start;fill:#00a0e9;"
         id="tspan59"
         rotate="81.373001"
         font-size="55.0519"
         y="217.88618"
         x="-38.854134" /><tspan
         style="font-style:normal;font-variant:normal;font-weight:bold;font-stretch:normal;font-size:49.99999416px;line-height:125%;font-family:'Avenir Next';-inkscape-font-specification:'Avenir Next, Bold';text-align:start;writing-mode:lr;text-anchor:start;fill:#00a0e9;"
         id="tspan61"
         rotate="88.125"
         font-size="55.0519"
         y="237.05281"
         x="-36.187195" /><tspan
         style="font-style:normal;font-variant:normal;font-weight:bold;font-stretch:normal;font-size:49.99999416px;line-height:125%;font-family:'Avenir Next';-inkscape-font-specification:'Avenir Next, Bold';text-align:start;writing-mode:lr;text-anchor:start;fill:#00a0e9;"
         id="tspan63"
         rotate="98.93"
         font-size="55.0519"
         y="255.65144"
         x="-34.73222">R</tspan><tspan
         style="font-style:normal;font-variant:normal;font-weight:bold;font-stretch:normal;font-size:49.99999416px;line-height:125%;font-family:'Avenir Next';-inkscape-font-specification:'Avenir Next, Bold';text-align:start;writing-mode:lr;text-anchor:start;fill:#00a0e9;"
         id="tspan65"
         rotate="113.728"
         font-size="55.0519"
         y="297.38263"
         x="-41.640091">A</tspan><tspan
         style="font-style:normal;font-variant:normal;font-weight:bold;font-stretch:normal;font-size:49.99999416px;line-height:125%;font-family:'Avenir Next';-inkscape-font-specification:'Avenir Next, Bold';text-align:start;writing-mode:lr;text-anchor:start;fill:#00a0e9;"
         id="tspan67"
         rotate="128.29601"
         font-size="55.0519"
         y="336.00287"
         x="-58.947746">C</tspan><tspan
         style="font-style:normal;font-variant:normal;font-weight:bold;font-stretch:normal;font-size:49.99999416px;line-height:125%;font-family:'Avenir Next';-inkscape-font-specification:'Avenir Next, Bold';text-align:start;writing-mode:lr;text-anchor:start;fill:#00a0e9;"
         id="tspan69"
         rotate="142.636"
         font-size="55.0519"
         y="368.89423"
         x="-85.573212">E</tspan><tspan
         style="font-style:normal;font-variant:normal;font-weight:bold;font-stretch:normal;font-size:49.99999416px;line-height:125%;font-family:'Avenir Next';-inkscape-font-specification:'Avenir Next, Bold';text-align:start;writing-mode:lr;text-anchor:start;fill:#00a0e9;"
         id="tspan71"
         rotate="156.86"
         font-size="55.0519"
         y="392.65674"
         x="-116.94061">R</tspan><tspan
         style="font-style:normal;font-variant:normal;font-weight:bold;font-stretch:normal;font-size:49.99999416px;line-height:125%;font-family:'Avenir Next';-inkscape-font-specification:'Avenir Next, Bold';text-align:start;writing-mode:lr;text-anchor:start;fill:#00a0e9;"
         id="tspan73"
         rotate="170.99699"
         font-size="55.0519"
         y="408.83743"
         x="-156.10883">S</tspan></text>
</g></svg>