<?xml version="1.0" encoding="UTF-8" standalone="no"?>
<!-- Generator: Adobe Illustrator 16.0.4, SVG Export Plug-In . SVG Version: 6.00 Build 0)  -->

<svg
   xmlns:dc="http://purl.org/dc/elements/1.1/"
   xmlns:cc="http://creativecommons.org/ns#"
   xmlns:rdf="http://www.w3.org/1999/02/22-rdf-syntax-ns#"
   xmlns:svg="http://www.w3.org/2000/svg"
   xmlns="http://www.w3.org/2000/svg"
   xmlns:sodipodi="http://sodipodi.sourceforge.net/DTD/sodipodi-0.dtd"
   xmlns:inkscape="http://www.inkscape.org/namespaces/inkscape"
   version="1.1"
   id="图层_1"
   x="0px"
   y="0px"
   viewBox="0 0 521.60477 174.6368"
   xml:space="default"
   inkscape:version="0.91 r13725"
   sodipodi:docname="logo-text-white.svg"
   width="521.6048"
   height="174.63681">
  <metadata
     id="metadata59">
    <rdf:RDF>
      <cc:Work
         rdf:about="">
        <dc:format>image/svg+xml</dc:format>
        <dc:type
           rdf:resource="http://purl.org/dc/dcmitype/StillImage" />
        <dc:title></dc:title>
      </cc:Work>
    </rdf:RDF>
  </metadata>
  <defs
     id="defs57" />
  <sodipodi:namedview
     pagecolor="#ffffff"
     bordercolor="#666666"
     borderopacity="1"
     objecttolerance="10"
     gridtolerance="10"
     guidetolerance="10"
     inkscape:pageopacity="0"
     inkscape:pageshadow="2"
     inkscape:window-width="1285"
     inkscape:window-height="760"
     id="namedview55"
     showgrid="false"
     fit-margin-top="0"
     fit-margin-left="0"
     fit-margin-right="0"
     fit-margin-bottom="0"
     inkscape:zoom="1.1213358"
     inkscape:cx="195.68583"
     inkscape:cy="83.747877"
     inkscape:window-x="0"
     inkscape:window-y="0"
     inkscape:window-maximized="0"
     inkscape:current-layer="图层_1" />
  <g
     id="g4293">
    <g
       transform="translate(-36.838179,-206.898)"
       id="g21">
      <path
         d="m 342.682,206.898 19.604,0 c 2.576,0 5.021,0.25 7.335,0.75 2.312,0.501 4.339,1.337 6.08,2.505 1.739,1.168 3.125,2.743 4.149,4.722 1.027,1.98 1.537,4.448 1.537,7.405 0,3.577 -0.927,6.618 -2.789,9.123 -1.858,2.503 -4.579,4.089 -8.155,4.757 l 12.879,21.392 -13.382,0 -10.587,-20.247 -5.511,0 0,20.247 -11.161,0 0,-50.654 z m 11.161,20.963 6.582,0 c 1.002,0 2.064,-0.036 3.185,-0.107 1.121,-0.072 2.135,-0.286 3.04,-0.644 0.906,-0.358 1.658,-0.917 2.256,-1.681 0.596,-0.762 0.895,-1.836 0.895,-3.22 0,-1.288 -0.263,-2.313 -0.788,-3.076 -0.525,-0.762 -1.194,-1.348 -2.005,-1.754 -0.812,-0.404 -1.743,-0.678 -2.789,-0.822 -1.05,-0.144 -2.075,-0.216 -3.076,-0.216 l -7.299,0 0,11.52 z"
         id="path23"
         inkscape:connector-curvature="0"
         style="fill:#37c0ff" />
      <path
         d="m 409.505,253.187 -0.145,0 c -1.19,1.86 -2.778,3.196 -4.758,4.007 -1.979,0.81 -4.066,1.216 -6.259,1.216 -1.62,0 -3.185,-0.227 -4.688,-0.68 -1.501,-0.453 -2.825,-1.134 -3.97,-2.04 -1.144,-0.905 -2.051,-2.026 -2.717,-3.362 -0.671,-1.333 -1.003,-2.885 -1.003,-4.65 0,-2.003 0.367,-3.695 1.109,-5.079 0.738,-1.383 1.741,-2.529 3.002,-3.435 1.265,-0.906 2.708,-1.61 4.332,-2.11 1.62,-0.501 3.302,-0.871 5.041,-1.11 1.743,-0.238 3.48,-0.38 5.224,-0.429 1.741,-0.047 3.351,-0.071 4.83,-0.071 0,-1.907 -0.68,-3.422 -2.041,-4.542 -1.358,-1.121 -2.968,-1.682 -4.828,-1.682 -1.766,0 -3.374,0.371 -4.83,1.108 -1.454,0.741 -2.753,1.754 -3.896,3.041 l -5.726,-5.866 c 2.005,-1.859 4.34,-3.256 7.012,-4.186 2.67,-0.93 5.438,-1.394 8.3,-1.394 3.148,0 5.735,0.393 7.764,1.18 2.026,0.787 3.648,1.944 4.86,3.47 1.22,1.527 2.064,3.398 2.541,5.616 0.476,2.219 0.718,4.783 0.718,7.691 l 0,17.671 -9.873,0 0,-4.364 z m -2.649,-10.875 c -0.811,0 -1.822,0.036 -3.038,0.107 -1.219,0.071 -2.388,0.275 -3.508,0.609 -1.121,0.334 -2.075,0.834 -2.861,1.502 -0.787,0.668 -1.181,1.599 -1.181,2.791 0,1.288 0.549,2.242 1.646,2.861 1.098,0.621 2.241,0.931 3.434,0.931 1.05,0 2.064,-0.143 3.04,-0.431 0.979,-0.285 1.848,-0.69 2.613,-1.215 0.761,-0.524 1.369,-1.192 1.824,-2.004 0.45,-0.811 0.68,-1.763 0.68,-2.861 l 0,-2.29 -2.649,0 z"
         id="path25"
         inkscape:connector-curvature="0"
         style="fill:#37c0ff" />
      <path
         d="m 449.64,234.014 c -0.523,-0.763 -1.266,-1.395 -2.218,-1.896 -0.956,-0.5 -1.979,-0.751 -3.076,-0.751 -2.718,0 -4.832,0.812 -6.333,2.434 -1.501,1.621 -2.252,3.744 -2.252,6.367 0,2.623 0.751,4.745 2.252,6.366 1.501,1.622 3.615,2.433 6.333,2.433 1.19,0 2.216,-0.262 3.076,-0.788 0.86,-0.524 1.597,-1.144 2.218,-1.86 l 7.081,7.441 c -1.669,1.717 -3.636,2.92 -5.901,3.612 -2.265,0.691 -4.423,1.038 -6.474,1.038 -2.674,0 -5.188,-0.43 -7.549,-1.29 -2.36,-0.858 -4.412,-2.083 -6.153,-3.683 -1.742,-1.596 -3.11,-3.517 -4.113,-5.759 -1,-2.241 -1.501,-4.745 -1.501,-7.511 0,-2.766 0.501,-5.271 1.501,-7.513 1.003,-2.241 2.371,-4.161 4.113,-5.759 1.741,-1.597 3.793,-2.825 6.153,-3.684 2.361,-0.859 4.875,-1.288 7.549,-1.288 2.051,0 4.209,0.347 6.474,1.037 2.266,0.693 4.232,1.896 5.901,3.613 l -7.081,7.441 z"
         id="path27"
         inkscape:connector-curvature="0"
         style="fill:#37c0ff" />
      <path
         d="m 493.497,251.542 c -1.721,2.194 -3.89,3.888 -6.511,5.079 -2.624,1.192 -5.345,1.789 -8.157,1.789 -2.671,0 -5.186,-0.43 -7.548,-1.29 -2.361,-0.858 -4.411,-2.083 -6.154,-3.683 -1.739,-1.596 -3.11,-3.517 -4.113,-5.759 -1,-2.241 -1.502,-4.745 -1.502,-7.511 0,-2.766 0.502,-5.271 1.502,-7.513 1.003,-2.241 2.374,-4.161 4.113,-5.759 1.743,-1.597 3.793,-2.825 6.154,-3.684 2.362,-0.859 4.877,-1.288 7.548,-1.288 2.48,0 4.734,0.429 6.762,1.288 2.026,0.859 3.746,2.087 5.151,3.684 1.406,1.599 2.492,3.519 3.255,5.759 0.764,2.243 1.145,4.747 1.145,7.513 l 0,3.362 -24.897,0 c 0.43,2.05 1.358,3.684 2.789,4.9 1.433,1.216 3.197,1.823 5.294,1.823 1.767,0 3.255,-0.392 4.471,-1.18 1.22,-0.787 2.281,-1.799 3.187,-3.039 l 7.511,5.509 z m -9.09,-15.311 c 0.047,-1.812 -0.548,-3.362 -1.786,-4.65 -1.241,-1.288 -2.84,-1.932 -4.792,-1.932 -1.194,0 -2.244,0.191 -3.15,0.573 -0.905,0.383 -1.682,0.871 -2.322,1.467 -0.644,0.597 -1.149,1.287 -1.506,2.075 -0.354,0.786 -0.56,1.609 -0.606,2.467 l 14.162,0 z"
         id="path29"
         inkscape:connector-curvature="0"
         style="fill:#37c0ff" />
      <path
         d="m 501.651,222.781 10.729,0 0,5.581 0.145,0 c 1.146,-2.146 2.504,-3.756 4.078,-4.83 1.573,-1.072 3.554,-1.609 5.939,-1.609 0.619,0 1.239,0.023 1.858,0.071 0.62,0.048 1.192,0.144 1.718,0.286 l 0,9.802 c -0.764,-0.239 -1.514,-0.418 -2.254,-0.537 -0.741,-0.118 -1.514,-0.18 -2.324,-0.18 -2.051,0 -3.675,0.287 -4.866,0.86 -1.192,0.572 -2.11,1.372 -2.755,2.396 -0.644,1.026 -1.061,2.253 -1.25,3.684 -0.191,1.431 -0.289,3.005 -0.289,4.723 l 0,14.523 -10.729,0 0,-34.77 z"
         id="path31"
         inkscape:connector-curvature="0"
         style="fill:#37c0ff" />
      <path
         d="m 550.444,233.012 c -1.575,-1.955 -3.648,-2.934 -6.225,-2.934 -0.906,0 -1.787,0.215 -2.647,0.645 -0.858,0.428 -1.288,1.169 -1.288,2.217 0,0.86 0.438,1.492 1.324,1.896 0.881,0.405 2.005,0.763 3.361,1.073 1.36,0.311 2.814,0.644 4.364,1.001 1.551,0.357 3.005,0.918 4.365,1.682 1.36,0.764 2.479,1.802 3.363,3.112 0.882,1.312 1.322,3.064 1.322,5.259 0,2.242 -0.489,4.088 -1.467,5.543 -0.979,1.456 -2.229,2.625 -3.755,3.506 -1.526,0.881 -3.246,1.502 -5.151,1.859 -1.909,0.358 -3.792,0.537 -5.654,0.537 -2.433,0 -4.886,-0.347 -7.367,-1.038 -2.48,-0.692 -4.577,-1.921 -6.297,-3.685 l 6.512,-7.227 c 1.003,1.243 2.111,2.184 3.327,2.828 1.216,0.644 2.634,0.964 4.256,0.964 1.24,0 2.362,-0.178 3.361,-0.535 1.004,-0.358 1.503,-1.013 1.503,-1.967 0,-0.905 -0.441,-1.585 -1.322,-2.039 -0.884,-0.453 -2.003,-0.835 -3.363,-1.146 -1.358,-0.309 -2.814,-0.644 -4.362,-1.002 -1.552,-0.356 -3.006,-0.894 -4.366,-1.608 -1.358,-0.715 -2.479,-1.728 -3.363,-3.04 -0.883,-1.312 -1.322,-3.066 -1.322,-5.26 0,-2.05 0.416,-3.815 1.254,-5.293 0.831,-1.478 1.931,-2.695 3.291,-3.649 1.356,-0.954 2.919,-1.656 4.688,-2.11 1.761,-0.453 3.547,-0.68 5.362,-0.68 2.287,0 4.603,0.335 6.938,1.001 2.339,0.668 4.318,1.859 5.94,3.577 l -6.582,6.513 z"
         id="path33"
         inkscape:connector-curvature="0"
         style="fill:#37c0ff" />
    </g>
    <g
       style="fill:#ffffff"
       id="g4239">
      <path
         style="fill:#ffffff"
         inkscape:connector-curvature="0"
         id="path37"
         d="m 257.40882,79.249 -20.569,0 0,25.244 c 0,2.08 0.103,3.973 0.312,5.688 0.207,1.716 0.675,3.195 1.403,4.441 0.727,1.247 1.842,2.209 3.35,2.882 1.504,0.679 3.506,1.014 5.999,1.014 1.248,0 2.882,-0.128 4.909,-0.39 2.026,-0.26 3.557,-0.855 4.597,-1.791 l 0,19.48 c -2.599,0.931 -5.297,1.555 -8.104,1.865 -2.804,0.314 -5.558,0.47 -8.258,0.47 -3.948,0 -7.584,-0.419 -10.907,-1.247 -3.326,-0.83 -6.233,-2.156 -8.726,-3.973 -2.494,-1.819 -4.442,-4.181 -5.844,-7.093 -1.403,-2.905 -2.103,-6.438 -2.103,-10.595 l 0,-35.996 -14.959,0 0,-18.699 14.959,0 0,-22.437 23.373,13.279 0,9.158 20.569,0 0,18.7 z" />
      <path
         style="fill:#ffffff"
         inkscape:connector-curvature="0"
         id="path39"
         d="m 293.95382,31.758 0,39.077 0.31,0 c 0.521,-1.453 1.402,-2.907 2.649,-4.362 1.246,-1.454 2.751,-2.752 4.518,-3.896 1.767,-1.141 3.843,-2.077 6.235,-2.805 2.389,-0.725 4.983,-1.091 7.789,-1.091 5.924,0 10.698,0.911 14.335,2.728 3.638,1.818 6.467,4.338 8.493,7.557 2.026,3.221 3.402,7.012 4.13,11.374 0.726,4.364 1.09,9.091 1.09,14.18 l 0,41.759 -23.373,0 0,-37.085 c 0,-2.18 -0.077,-4.438 -0.234,-6.777 -0.155,-2.338 -0.624,-4.492 -1.401,-6.465 -0.778,-1.973 -1.975,-3.585 -3.586,-4.83 -1.609,-1.249 -3.92,-1.872 -6.932,-1.872 -3.013,0 -5.454,0.545 -7.325,1.637 -1.867,1.091 -3.298,2.547 -4.283,4.363 -0.989,1.818 -1.637,3.872 -1.949,6.156 -0.312,2.286 -0.465,4.675 -0.465,7.168 l 0,37.706 -23.375,0 0,-117.8 23.374,13.278 z" />
      <path
         style="fill:#ffffff"
         inkscape:connector-curvature="0"
         id="path41"
         d="m 407.54582,126.778 -0.312,0 c -2.599,4.048 -6.052,6.959 -10.362,8.725 -4.312,1.765 -8.856,2.649 -13.635,2.649 -3.532,0 -6.934,-0.495 -10.205,-1.479 -3.272,-0.985 -6.156,-2.471 -8.649,-4.442 -2.491,-1.973 -4.468,-4.413 -5.922,-7.325 -1.454,-2.905 -2.18,-6.283 -2.18,-10.128 0,-4.364 0.805,-8.049 2.414,-11.062 1.609,-3.014 3.791,-5.507 6.543,-7.48 2.753,-1.971 5.896,-3.508 9.429,-4.598 3.531,-1.09 7.192,-1.895 10.986,-2.414 3.791,-0.52 7.582,-0.83 11.374,-0.935 3.791,-0.104 7.299,-0.157 10.52,-0.157 0,-4.153 -1.481,-7.451 -4.442,-9.894 -2.961,-2.441 -6.467,-3.664 -10.518,-3.664 -3.845,0 -7.351,0.807 -10.519,2.416 -3.17,1.612 -5.999,3.818 -8.491,6.623 l -12.467,-12.778 c 4.364,-4.051 9.45,-7.089 15.271,-9.115 5.815,-2.026 11.844,-3.039 18.075,-3.039 6.856,0 12.489,0.857 16.906,2.571 4.417,1.714 7.95,4.234 10.597,7.558 2.65,3.325 4.491,7.401 5.532,12.232 1.037,4.83 1.559,10.415 1.559,16.751 l 0,38.485 -21.503,0 0,-9.5 z m -5.765,-23.688 c -1.769,0 -3.976,0.078 -6.626,0.235 -2.648,0.155 -5.192,0.599 -7.634,1.324 -2.442,0.725 -4.52,1.818 -6.233,3.271 -1.713,1.456 -2.569,3.48 -2.569,6.079 0,2.804 1.19,4.882 3.583,6.231 2.389,1.35 4.883,2.028 7.48,2.028 2.284,0 4.493,-0.313 6.622,-0.938 2.129,-0.62 4.023,-1.504 5.687,-2.648 1.66,-1.142 2.984,-2.595 3.974,-4.362 0.984,-1.765 1.481,-3.842 1.481,-6.232 l 0,-4.987 -5.765,0 z" />
      <g
         style="fill:#ffffff"
         id="g4223">
        <path
           d="m 169.68282,126.778 -0.313,0 c -2.597,4.048 -6.052,6.959 -10.361,8.725 -4.312,1.765 -8.857,2.649 -13.635,2.649 -3.533,0 -6.935,-0.495 -10.206,-1.479 -3.272,-0.985 -6.156,-2.471 -8.648,-4.442 -2.492,-1.973 -4.468,-4.413 -5.921,-7.325 -1.455,-2.905 -2.181,-6.283 -2.181,-10.128 0,-4.364 0.804,-8.049 2.416,-11.062 1.609,-3.014 3.79,-5.507 6.543,-7.48 2.751,-1.971 5.896,-3.508 9.428,-4.598 3.529,-1.09 7.192,-1.895 10.985,-2.414 3.791,-0.52 7.582,-0.83 11.374,-0.935 3.792,-0.104 7.297,-0.157 10.519,-0.157 0,-4.153 -1.481,-7.451 -4.44,-9.894 -2.962,-2.441 -6.468,-3.664 -10.52,-3.664 -3.845,0 -7.35,0.807 -10.517,2.416 -3.17,1.612 -5.999,3.818 -8.492,6.623 l -12.467,-12.778 c 4.364,-4.051 9.451,-7.089 15.271,-9.115 5.816,-2.026 11.843,-3.039 18.076,-3.039 6.855,0 12.49,0.857 16.907,2.571 4.413,1.714 7.946,4.234 10.595,7.558 2.649,3.325 4.493,7.401 5.533,12.232 1.037,4.83 1.557,10.415 1.557,16.751 l 0,1.884 c 0,0 -5.027,14.514 -12.126,20.987 -3.228,2.942 -5.303,5.903 -5.941,8.83 -1.083,4.973 1.328,9.352 1.328,9.352 0,0 -2.49,-1.494 -3.486,-2.932 -0.868,-1.256 -1.277,-3.598 -1.277,-3.598 l 0,-5.538 z m -5.766,-23.688 c -1.767,0 -3.973,0.078 -6.623,0.235 -2.648,0.155 -5.194,0.599 -7.635,1.324 -2.442,0.726 -4.519,1.818 -6.232,3.271 -1.715,1.456 -2.572,3.48 -2.572,6.079 0,2.804 1.194,4.882 3.584,6.231 2.389,1.35 4.881,2.028 7.479,2.028 2.284,0 4.493,-0.313 6.624,-0.938 2.127,-0.62 4.024,-1.504 5.687,-2.648 1.661,-1.142 2.985,-2.595 3.973,-4.362 0.987,-1.765 1.481,-3.842 1.481,-6.232 l 0,-4.987 -5.766,0 z"
           id="path35"
           inkscape:connector-curvature="0"
           style="fill:#ffffff" />
        <path
           d="m 175.47782,127.685 c -1.007,2.138 -1.188,5.837 -0.158,8.698 1.129,3.142 3.97,5.463 8.324,5.369 8.317,-0.182 10.633,-11.615 5.061,-14.553 -4.597,-2.429 -8.486,0.036 -8.147,4.647 0.164,2.203 2.021,3.648 3.641,3.623 1.772,-0.027 3.943,-1.548 3.943,-1.548 -0.705,2.729 -2.651,3.659 -3.97,3.955 -2.723,0.613 -5.057,-2.246 -5.159,-3.353 -2.104,-10.595 9.406,-10.508 9.406,-10.508 3.011,-8.817 3.047,-16.913 2.756,-21.211 -0.716,2.719 -3.57,8.749 -5.279,11.792 -2.762,5.491 -8.296,8.576 -10.418,13.089 z"
           id="path43"
           inkscape:connector-curvature="0"
           style="fill:#ffffff" />
      </g>
      <g
         style="fill:#ffffff"
         id="g4212">
        <path
           d="m 4.305821,88.275 c 5.533,28.106 29.215,39.838 29.215,39.838 10.623,0.441 18.259,-0.112 27.886,-4.76 4.282,-2.068 8.452,-2.443 14.718,0.111 7.82,3.187 5.644,12.836 5.644,12.836 15.556,-5.081 22.644999,-16.062 25.516999,-22.269 1.151,-3.404 4.582,-4.732 4.582,-4.732 0,0 -1.839,-0.11 -2.877,0.222 -2.412,1.407 -4.648,1.33 -5.866,0.553 -1.462,-0.934 -1.327,-3.237 -1.327,-3.237 -2.761999,-2.219 -3.457999,-3.208 -2.904999,-5.976 0.71,-3.555 4.281999,-3.406 4.281999,-3.406 5.436,-4.383 8.361,2.219 8.361,2.219 -1.328,-0.775 -3.486,-1.107 -5.257,0.108 -1.77,1.218 -3.154,3.984 -1.162,6.391 1.362,1.646 4.739,1.935 7.333,0.743 3.07,-2.042 3.841,-6.084 3.873,-7.574 0.146,-6.952 -5.783,-10.403 -5.783,-10.403 -7.581,-4.205 -14.218999,-1.881 -18.202999,1.606 -4.087,3.576 -3.984,6.142 -4.98,9.793 -0.996,3.652 -2.87,5.783 -4.11,7.044 -5.378,5.46 -19.406,5.46 -19.406,5.46 -31.87,-2.656 -35.411,-30.986 -35.411,-30.986 -4.56,-36.297 29.69,-42.465 33.198,-42.438 3.445,0.026 1.328,1.162 1.328,1.162 -17.526,1.328 -26.392,13.112 -26.392,13.112 11.619,-10.125 21.209,-7.787 21.209,-7.787 8.944,1.929 11.047,-1.755 11.047,-1.755 1.929,-5.435 -2.455,-8.066 -2.455,-8.066 -9.207,-3.506 -11.82,-15.424 -11.82,-15.424 0,0 -34.526,4.87 -44.292,32.434 -4.735,11.398 0.249,21.126 0.249,21.126 5.96,14.278 -6.196,14.055 -6.196,14.055 z m 11.441,-36.694 c 0,0 11.286,-19.423 36.694,-25.414 0.334,1.354 1.329,2.467 1.329,2.467 0,0 -20.282,3.449 -38.023,22.947 z m -7.757,40.302 c 0,0 12.05,20.112 16.232,23.371 0,-0.001 -12.027,-6.931 -16.232,-23.371 z"
           id="path5"
           inkscape:connector-curvature="0"
           style="fill:#ffffff" />
        <path
           d="m 68.204821,123.385 c 2.49,-0.303 6.267,0.747 8.805,2.735 2.788,2.184 4.178,5.813 2.632,10.161 -2.952,8.311 -15.227,6.837 -16.331,0.25 -0.909,-5.432 2.862,-8.525 7.39,-6.649 2.163,0.896 3,3.248 2.435,4.87 -0.62,1.773 -2.87,3.451 -2.87,3.451 2.979,0.2 4.566,-1.448 5.304,-2.678 1.522,-2.536 -0.581,-5.837 -1.66,-6.308 -9.959,-5.644 -13.704,5.967 -13.704,5.967 -14.571,0.141 -25.402,-5.716 -25.402,-5.716 0,0 7.349,1.277 15.979,-0.26 8.632,-1.54 12.173,-5.191 17.422,-5.823 z"
           id="path7"
           inkscape:connector-curvature="0"
           style="fill:#ffffff" />
        <path
           d="m 5.121821,77.088 c 0,0 2.364,2.247 1.011,4.55 0,0 -1.482,1.931 -3.719,0.055 0,0 2.578,4.748 5.199,-0.575 0,0 1.467,-4.586 -3.837,-5.968 0,0 0.612,-11.765 3.183,-13.912 0,0 -0.71,6.979 1.216,11.29 1.926,4.312 4.209,9.993 -0.267,13.224 0,0 -6.161,2.576 -7.822,-3.822 0.001,-0.001 -1.161,-6.16 5.036,-4.842 z"
           id="path9"
           inkscape:connector-curvature="0"
           style="fill:#ffffff" />
        <path
           d="m 38.771821,22.284 c -5.362,4.076 -13.187,3.157 -13.717,-2.84 0,0 -0.332,-3.929 2.435,-5.478 2.118,-1.186 5.102,-0.462 5.496,-0.274 0.867,0.412 3.204,1.865 2.492,4.168 -0.712,2.302 -2.593,2.414 -3.589,2.165 -1.215,-0.304 -1.965,-1.716 -1.534,-3.001 0,0 0.062,-0.43 -0.126,-0.624 -0.189,-0.195 -0.625,-0.152 -0.692,-0.055 -0.49,0.707 -1.371,2.632 0.498,4.261 0,0 2.425,2.204 8.737,-0.953 0,0 5.611,-2.806 13.502,-0.526 0.001,0 -8.138,-0.919 -13.502,3.157 z"
           id="path11"
           inkscape:connector-curvature="0"
           style="fill:#ffffff" />
        <path
           d="m 35.756821,19.03 c 0,0 2.068,-2.333 -0.531,-4.72 0,0 7.832,0.046 14.01,3.544 0,0 -8.653,-2.113 -13.479,1.176 z"
           id="path13"
           inkscape:connector-curvature="0"
           style="fill:#ffffff" />
        <path
           d="m 65.137821,32.753 c 0,0 -6.441,-2.713 -8.545,-15.689 0,0 3.285,9.903 12.753,11.656 0,0 1.3,0.405 2.739,0.461 1.439,0.056 2.379,-0.221 2.379,-0.221 0,0 3.227,0.421 4.979,3.929 0,0 0.481,1.077 -0.221,2.656 0,0 2.749,0.014 4.502,1.417 1.753,1.403 3.478,4.267 5.961,5.962 2.483,1.695 7.716,4.559 14.553999,2.981 0,0 3.332,-0.702 2.806,3.156 0,0 -0.175,4.208 -8.766999,5.962 0,0 5.785999,-2.981 0.175,-5.085 -5.611,-2.104 -14.729,-6.312 -21.217,-2.631 0,0 -7.54,3.683 -13.151,0.702 0,0 10.521,-1.403 8.241,-9.294 0.002,0 -1.226,-3.857 -7.188,-5.962 z"
           id="path15"
           inkscape:connector-curvature="0"
           style="fill:#ffffff" />
        <path
           d="m 114.76282,28.896 c -1.21,-1.083 -7.54,-4.035 -8.066,5.084 0,0 -7.886999,4.275 -13.418999,-0.317 -3.531,-2.93 -5.865,-2.103 -5.146,-6.032 0,0 0.162,-0.02 0.424,-0.044 -0.022,0.122 -0.037,0.247 -0.037,0.376 0,1.13 0.917,2.048 2.047,2.048 1.13,0 2.048,-0.917 2.048,-2.048 0,-0.119 -0.016,-0.234 -0.035,-0.348 1.017,0.137 1.969,0.412 2.545,0.929 0,0 -1.182,0.139 -1.625,1.467 -0.229,0.686 0.149,1.724 0.923,2.391 1.878,1.616 10.169999,1.929 9.644999,-4.91 0,0 0.138,-3.637 -4.033,-4.033 -4.170999,-0.396 -7.455999,2.079 -8.940999,0.479 -1.486,-1.599 -1.245,-4.025 -3.071,-5.934 -0.794,-0.831 -1.494,-1.619 -3.006,-2.27 -1.79,-0.77 -2.057,-2.295 -2.057,-2.295 0,0 -0.664,1.992 0.422,3.073 1.767,1.758 1.524,5.78 -1.583,5.895 0,0 -2.389,-0.136 -2.74,-6.975 0,0 -2.324,-9.628 -6.972,-7.802 -1.663,0.653 -1.162,3.818 1.119,6.711 2.028,2.572 -0.539,6.07 -4.209,4.91 -3.671,-1.16 -5.236,-7.557 -6.538,-9.878 -1.909,-3.403 -4.704,-6.441 -6.557,-4.896 -1.494,1.245 -1.669,4.016 1.743,9.71 2.104,3.51 3.321,6.81 6.968,9.799 3.435,2.816 6.533,3.094 8.943,2.806 3.006,-0.36 6.838,1.929 8.592,6.312 0,0 3.332,1.754 5.962,4.208 2.63,2.456 9.54,6.421 19.989999,4.032 11.085,-2.532 8.528,-10.779 6.664,-12.448 z"
           id="path17"
           inkscape:connector-curvature="0"
           style="fill:#ffffff" />
        <path
           d="M 52.774821,75.88"
           id="path19"
           inkscape:connector-curvature="0"
           style="fill:#ffffff" />
        <path
           d="m 95.268821,86.143 c 0,0 4.233,-6.059 9.875999,-6.723 2.242,-0.263 3.945,0.115 5.271,0.042 1.225,-0.067 2.114,-0.566 3.111,-1.245 0,0 -0.457,1.618 -2.323,2.49 -1.13,0.528 -2.158,-0.166 -2.573,0.913 -0.415,1.079 0.316,1.777 1.577,2.033 1.727,0.352 3.31,-1.718 3.983,-3.112 1.743,-3.61 6.308,-3.154 9.461,-1.785 0,0 -3.099,-0.308 -4.482,0.872 -0.863,0.738 -1.494,1.909 -0.747,3.32 0.919,1.736 0.542,3.559 0.163,4.626 -0.205,0.578 -0.474,0.561 -0.474,0.873 0,0.311 0.261,0.473 0.581,0.352 0.996,-0.374 0.374,-1.432 0.664,-2.303 0.417,-1.251 1.266,-1.764 2.469,-1.598 0,0 -1.058,0.032 -1.474,1.183 -0.241,0.667 -0.083,1.921 0.146,3.216 0.788,4.46 -1.66,8.134 -2.656,9.544 0.499,-6.141 -6.389,-18.093 -22.572999,-12.698 z"
           id="path49"
           inkscape:connector-curvature="0"
           style="fill:#ffffff" />
      </g>
      <g
         style="fill:#ffffff"
         id="g4233">
        <g
           style="fill:#ffffff"
           transform="translate(-36.838179,-206.898)"
           id="g45">
          <path
             d="m 519.644,366.239 c 1.452,-3.114 2.961,-6.701 4.518,-10.747 l 34.281,-88.044 -23.999,0 -16.669,50.021 -0.312,0 -19.479,-50.021 -25.143,0 44.632,102.619 c 0.794,-1.183 1.526,-2.45 2.171,-3.828 z"
             id="path47"
             inkscape:connector-curvature="0"
             style="fill:#ffffff" />
        </g>
        <g
           style="fill:#ffffff"
           transform="translate(-36.838179,-206.898)"
           id="g51">
          <path
             d="m 502.822,353.878 c -5.922,3.604 -11.952,3.042 -14.056,3.042 0.058,0.002 1.018,0.666 1.494,0.886 1.837,0.076 3.266,0.609 3.93,2.712 0.869,2.751 -0.83,3.874 -0.83,3.874 1.494,1.825 1.418,4.092 -0.609,5.808 -2.609,2.212 -6.113,-0.148 -6.113,-0.148 -6.835,1.145 -4.881,-6.54 -4.881,-6.54 0.529,1.35 1.918,3.148 4.354,3.036 2.493,-0.113 4.207,-0.884 4.647,-4.426 -0.715,-5.018 -5.464,-5.929 -9.054,-4.218 -8.985,5.239 -5.505,14.127 -5.505,14.127 3.138,7.552 9.407,9.728 14.395,9.486 10.668,-0.238 19.19,-6.102 24.543,-11.128 l -8.479,-19.501 c -1.039,1.036 -2.295,2.05 -3.836,2.99 z"
             id="path53"
             inkscape:connector-curvature="0"
             style="fill:#ffffff" />
        </g>
      </g>
    </g>
  </g>
</svg>
