<?xml version="1.0" encoding="utf-8"?>
<!-- Generator: Adobe Illustrator 16.0.4, SVG Export Plug-In . SVG Version: 6.00 Build 0)  -->
<!DOCTYPE svg PUBLIC "-//W3C//DTD SVG 1.1//EN" "http://www.w3.org/Graphics/SVG/1.1/DTD/svg11.dtd">
<svg version="1.1" id="图层_1" xmlns="http://www.w3.org/2000/svg" xmlns:xlink="http://www.w3.org/1999/xlink" x="0px" y="0px"
	 width="595.28px" height="595.28px" viewBox="0 0 595.28 595.28" enable-background="new 0 0 595.28 595.28" xml:space="preserve">
<g>
	<path fill="#EA5504" d="M174.356,327.869c10.704,54.377,56.519,77.074,56.519,77.074c20.551,0.854,35.324-0.215,53.948-9.209
		c8.285-4.002,16.353-4.727,28.476,0.213c15.128,6.164,10.918,24.834,10.918,24.834c30.095-9.826,43.808-31.074,49.365-43.08
		c2.227-6.586,8.864-9.152,8.864-9.152s-3.559-0.215-5.565,0.426c-4.667,2.723-8.992,2.572-11.349,1.07
		c-2.829-1.805-2.566-6.264-2.566-6.264c-5.345-4.295-6.692-6.207-5.62-11.562c1.374-6.877,8.284-6.588,8.284-6.588
		c10.515-8.48,16.174,4.293,16.174,4.293c-2.569-1.502-6.742-2.145-10.17,0.209c-3.423,2.355-6.102,7.707-2.248,12.361
		c2.635,3.186,9.168,3.744,14.188,1.441c5.937-3.953,7.43-11.771,7.49-14.656c0.282-13.449-11.188-20.127-11.188-20.127
		c-14.665-8.129-27.509-3.635-35.215,3.109c-7.909,6.916-7.709,11.881-9.635,18.945c-1.925,7.064-5.551,11.188-7.952,13.629
		c-10.405,10.561-37.542,10.561-37.542,10.561c-61.656-5.137-68.505-59.945-68.505-59.945c-8.822-70.221,57.438-82.156,64.224-82.1
		c6.666,0.05,2.57,2.25,2.57,2.25c-33.906,2.569-51.059,25.37-51.059,25.37c22.478-19.588,41.032-15.066,41.032-15.066
		c17.302,3.729,21.372-3.397,21.372-3.397c3.73-10.513-4.749-15.604-4.749-15.604c-17.811-6.784-22.868-29.837-22.868-29.837
		s-66.792,9.42-85.687,62.745c-9.16,22.05,0.481,40.871,0.481,40.871C197.872,328.303,174.356,327.869,174.356,327.869z
		 M196.488,256.882c0,0,21.836-37.576,70.988-49.166c0.648,2.619,2.572,4.773,2.572,4.773S230.81,219.164,196.488,256.882z
		 M181.482,334.852c0,0,23.31,38.908,31.402,45.213C212.885,380.064,189.617,366.658,181.482,334.852z"/>
	<path fill="#EA5504" d="M297.976,395.799c4.817-0.59,12.126,1.443,17.035,5.289c5.392,4.225,8.081,11.248,5.093,19.658
		c-5.712,16.08-29.459,13.227-31.594,0.482c-1.758-10.506,5.539-16.492,14.297-12.861c4.185,1.734,5.804,6.281,4.709,9.42
		c-1.196,3.432-5.548,6.676-5.548,6.676c5.762,0.391,8.833-2.803,10.259-5.18c2.945-4.908-1.124-11.291-3.211-12.201
		c-19.27-10.92-26.513,11.539-26.513,11.539c-28.188,0.277-49.142-11.055-49.142-11.055s14.217,2.473,30.914-0.504
		C280.97,404.082,287.821,397.018,297.976,395.799z"/>
	<path fill="#EA5504" d="M175.934,306.229c0,0,4.573,4.35,1.957,8.803c0,0-2.869,3.734-7.195,0.105c0,0,4.986,9.186,10.058-1.111
		c0,0,2.839-8.871-7.422-11.547c0,0,1.182-22.759,6.158-26.912c0,0-1.374,13.501,2.353,21.838
		c3.727,8.343,8.144,19.335-0.516,25.585c0,0-11.919,4.98-15.132-7.391C166.193,315.6,163.945,303.68,175.934,306.229z"/>
	<path fill="#EA5504" d="M241.034,200.206c-10.374,7.879-25.511,6.105-26.536-5.496c0,0-0.644-7.603,4.708-10.596
		c4.098-2.295,9.871-0.896,10.632-0.531c1.678,0.795,6.201,3.611,4.822,8.062c-1.378,4.456-5.017,4.672-6.943,4.191
		c-2.353-0.591-3.802-3.324-2.968-5.809c0,0,0.119-0.833-0.244-1.21c-0.365-0.375-1.209-0.292-1.339-0.104
		c-0.947,1.369-2.651,5.091,0.963,8.243c0,0,4.691,4.262,16.903-1.843c0,0,10.854-5.429,26.121-1.016
		C267.155,194.099,251.41,192.318,241.034,200.206z"/>
	<path fill="#EA5504" d="M235.2,193.91c0,0,4.001-4.516-1.027-9.135c0,0,15.15,0.092,27.105,6.857
		C261.278,191.632,244.536,187.549,235.2,193.91z"/>
	<path fill="#EA5504" d="M292.042,220.459c0,0-12.461-5.252-16.532-30.357c0,0,6.355,19.163,24.675,22.554
		c0,0,2.514,0.787,5.298,0.89c2.783,0.111,4.601-0.425,4.601-0.425s6.244,0.819,9.637,7.603c0,0,0.93,2.08-0.43,5.139
		c0,0,5.317,0.023,8.711,2.735c3.392,2.717,6.729,8.258,11.532,11.537c4.806,3.278,14.93,8.82,28.158,5.77
		c0,0,6.445-1.362,5.429,6.101c0,0-0.341,8.143-16.961,11.537c0,0,11.193-5.77,0.338-9.839c-10.854-4.07-28.496-12.213-41.049-5.091
		c0,0-14.586,7.128-25.441,1.364c0,0,20.352-2.72,15.944-17.983C305.951,231.994,303.577,224.531,292.042,220.459z"/>
	<path fill="#EA5504" d="M388.047,212.997c-2.339-2.096-14.587-7.805-15.605,9.834c0,0-15.259,8.272-25.96-0.609
		c-6.833-5.671-11.347-4.067-9.957-11.67c0,0,0.312-0.038,0.821-0.085c-0.044,0.237-0.071,0.479-0.071,0.729
		c0,2.186,1.773,3.959,3.962,3.959c2.185,0,3.961-1.773,3.961-3.959c0-0.232-0.032-0.456-0.069-0.676
		c1.967,0.267,3.81,0.795,4.924,1.799c0,0-2.288,0.27-3.143,2.836c-0.442,1.33,0.287,3.333,1.785,4.626
		c3.634,3.126,19.675,3.731,18.658-9.501c0,0,0.267-7.033-7.806-7.798c-8.067-0.766-14.421,4.021-17.295,0.925
		c-2.875-3.094-2.408-7.787-5.938-11.479c-1.54-1.606-2.895-3.133-5.816-4.392c-3.465-1.486-3.979-4.439-3.979-4.439
		s-1.284,3.853,0.814,5.944c3.418,3.402,2.948,11.18-3.062,11.403c0,0-4.621-0.265-5.298-13.495c0,0-4.497-18.626-13.489-15.093
		c-3.216,1.263-2.248,7.387,2.167,12.984c3.922,4.975-1.044,11.744-8.144,9.501c-7.103-2.245-10.131-14.624-12.648-19.112
		c-3.695-6.584-9.101-12.464-12.688-9.476c-2.889,2.409-3.227,7.771,3.373,18.788c4.071,6.791,6.428,13.175,13.481,18.958
		c6.646,5.447,12.638,5.986,17.301,5.427c5.815-0.697,13.23,3.731,16.623,12.211c0,0,6.444,3.395,11.535,8.141
		c5.086,4.752,18.453,12.425,38.67,7.803C396.601,232.182,391.651,216.229,388.047,212.997z"/>
	<path fill="#EA5504" d="M268.125,303.889"/>
	<path fill="#EA5504" d="M350.332,323.746c0,0,8.188-11.717,19.107-13.004c4.339-0.51,7.633,0.221,10.195,0.08
		c2.372-0.135,4.093-1.094,6.022-2.41c0,0-0.884,3.133-4.495,4.816c-2.188,1.021-4.176-0.318-4.978,1.77
		c-0.806,2.084,0.611,3.438,3.05,3.934c3.34,0.68,6.404-3.326,7.707-6.021c3.371-6.986,12.201-6.102,18.302-3.453
		c0,0-5.995-0.596-8.669,1.686c-1.669,1.43-2.891,3.693-1.443,6.424c1.775,3.357,1.049,6.883,0.312,8.947
		c-0.396,1.119-0.916,1.086-0.916,1.691c0,0.6,0.505,0.916,1.123,0.68c1.929-0.723,0.722-2.766,1.284-4.457
		c0.81-2.42,2.45-3.41,4.777-3.09c0,0-2.045,0.062-2.85,2.287c-0.468,1.291-0.161,3.723,0.28,6.223
		c1.524,8.629-3.211,15.738-5.137,18.465C394.967,336.434,381.643,313.312,350.332,323.746z"/>
</g>
<path fill="#EA5504" d="M433.295,301.631c0,39.707-15.983,75.662-41.84,101.748c0.134,0.082,0.266,0.172,0.391,0.266
	c27.375-26.646,44.382-63.891,44.382-105.113c0-81.02-65.68-146.702-146.7-146.702s-146.698,65.682-146.698,146.702
	c0,41.316,17.087,78.64,44.576,105.298c0.147-0.07,0.299-0.135,0.453-0.197c-26.007-26.109-42.097-62.166-42.097-102.002
	c0-79.695,64.366-144.298,143.767-144.298C368.929,157.333,433.295,221.936,433.295,301.631z"/>
<g>
	<polygon fill="#00A0E9" points="472.2,321.008 475.558,327.805 483.058,328.893 477.63,334.188 478.912,341.658 472.2,338.129 
		465.492,341.658 466.775,334.188 461.346,328.893 468.846,327.805 	"/>
	<polygon fill="#00A0E9" points="459.701,361.316 463.056,368.115 470.56,369.205 465.131,374.498 466.412,381.967 459.701,378.443 
		452.992,381.967 454.274,374.498 448.843,369.205 456.346,368.115 	"/>
	<polygon fill="#00A0E9" points="438.747,397.053 442.101,403.855 449.604,404.943 444.177,410.234 445.457,417.709 438.747,414.18 
		432.034,417.709 433.318,410.234 427.889,404.943 435.393,403.855 	"/>
</g>
<g>
	<polygon fill="#00A0E9" points="110.011,318.695 106.82,325.576 99.349,326.85 104.906,332.008 103.812,339.508 110.431,335.816 
		117.225,339.178 115.76,331.74 121.057,326.316 113.527,325.408 	"/>
	<polygon fill="#00A0E9" points="123.052,358.775 119.864,365.652 112.392,366.93 117.949,372.084 116.851,379.586 123.473,375.893 
		130.268,379.254 128.804,371.816 134.098,366.393 126.572,365.488 	"/>
	<polygon fill="#00A0E9" points="144.88,393.984 141.696,400.867 134.223,402.139 139.777,407.299 138.68,414.797 145.302,411.104 
		152.098,414.467 150.631,407.029 155.93,401.607 148.403,400.701 	"/>
</g>
<path fill="#EA5504" d="M289.249,71.379c-124.646,0-225.69,101.047-225.69,225.697c0,75.661,37.235,142.629,94.382,183.575
	l-1.155-4.301c-54.258-40.309-88.713-103.799-88.713-176.588c0-122.148,99.025-221.178,221.177-221.178
	c122.154,0,221.18,99.03,221.18,221.178c0,73.082-33.927,136.312-88.567,176.588l-2.272,4.994
	c57.695-40.883,95.354-108.176,95.354-184.268C514.942,172.426,413.896,71.379,289.249,71.379z"/>
<path fill="none" d="M464.415,416.236c-65.747,96.254-197.071,120.986-293.328,55.24c-96.256-65.748-120.988-197.076-55.243-293.326
	C181.59,81.892,312.918,57.16,409.17,122.906C505.427,188.652,530.162,319.982,464.415,416.236z"/>
<text transform="matrix(0.1092 -0.994 0.994 0.1092 125.0781 298.8711)"><tspan x="0" y="0" fill="#00A0E9" font-family="'Arial-BoldMT'" font-size="55.0519">C</tspan><tspan x="42.258" y="0.321" fill="#00A0E9" font-family="'Arial-BoldMT'" font-size="55.0519" rotate="14.834">A</tspan><tspan x="82.788" y="11.541" fill="#00A0E9" font-family="'Arial-BoldMT'" font-size="55.0519" rotate="28.995">T</tspan><tspan x="115.103" y="29.176" fill="#00A0E9" font-family="'Arial-BoldMT'" font-size="55.0519" rotate="42.171">H</tspan><tspan x="146.203" y="57.797" fill="#00A0E9" font-family="'Arial-BoldMT'" font-size="55.0519" rotate="57.002">A</tspan><tspan x="168.843" y="93.623" fill="#00A0E9" font-family="'Arial-BoldMT'" font-size="55.0519" rotate="71.189">Y</tspan><tspan x="180.563" y="131.895" fill="#00A0E9" font-family="'Arial-BoldMT'" font-size="55.0519" rotate="81.373"> </tspan><tspan x="183.23" y="151.062" fill="#00A0E9" font-family="'Arial-BoldMT'" font-size="55.0519" rotate="88.125"> </tspan><tspan x="184.685" y="169.661" fill="#00A0E9" font-family="'Arial-BoldMT'" font-size="55.0519" rotate="98.93">R</tspan><tspan x="177.777" y="211.393" fill="#00A0E9" font-family="'Arial-BoldMT'" font-size="55.0519" rotate="113.728">A</tspan><tspan x="160.469" y="250.014" fill="#00A0E9" font-family="'Arial-BoldMT'" font-size="55.0519" rotate="128.296">C</tspan><tspan x="133.843" y="282.906" fill="#00A0E9" font-family="'Arial-BoldMT'" font-size="55.0519" rotate="142.636">E</tspan><tspan x="102.475" y="306.669" fill="#00A0E9" font-family="'Arial-BoldMT'" font-size="55.0519" rotate="156.86">R</tspan><tspan x="63.306" y="322.85" fill="#00A0E9" font-family="'Arial-BoldMT'" font-size="55.0519" rotate="170.997">S</tspan></text>
</svg>
