<?xml version="1.0" encoding="UTF-8" standalone="no"?>
<svg
   xmlns:dc="http://purl.org/dc/elements/1.1/"
   xmlns:cc="http://creativecommons.org/ns#"
   xmlns:rdf="http://www.w3.org/1999/02/22-rdf-syntax-ns#"
   xmlns:svg="http://www.w3.org/2000/svg"
   xmlns="http://www.w3.org/2000/svg"
   xml:space="preserve"
   enable-background="new 0 0 595.28 595.28"
   viewBox="0 0 266.86098 266.86098"
   height="266.86099"
   width="266.86099"
   y="0px"
   x="0px"
   id="图层_1"
   version="1.1"><metadata
     id="metadata79"><rdf:RDF><cc:Work
         rdf:about=""><dc:format>image/svg+xml</dc:format><dc:type
           rdf:resource="http://purl.org/dc/dcmitype/StillImage" /><dc:title></dc:title></cc:Work></rdf:RDF></metadata><defs
     id="defs77" /><g
     transform="translate(-152.20378,-164.95353)"
     id="g3"><path
       id="path5"
       d="m 174.356,327.869 c 10.704,54.377 56.519,77.074 56.519,77.074 20.551,0.854 35.324,-0.215 53.948,-9.209 8.285,-4.002 16.353,-4.727 28.476,0.213 15.128,6.164 10.918,24.834 10.918,24.834 30.095,-9.826 43.808,-31.074 49.365,-43.08 2.227,-6.586 8.864,-9.152 8.864,-9.152 0,0 -3.559,-0.215 -5.565,0.426 -4.667,2.723 -8.992,2.572 -11.349,1.07 -2.829,-1.805 -2.566,-6.264 -2.566,-6.264 -5.345,-4.295 -6.692,-6.207 -5.62,-11.562 1.374,-6.877 8.284,-6.588 8.284,-6.588 10.515,-8.48 16.174,4.293 16.174,4.293 -2.569,-1.502 -6.742,-2.145 -10.17,0.209 -3.423,2.355 -6.102,7.707 -2.248,12.361 2.635,3.186 9.168,3.744 14.188,1.441 5.937,-3.953 7.43,-11.771 7.49,-14.656 0.282,-13.449 -11.188,-20.127 -11.188,-20.127 -14.665,-8.129 -27.509,-3.635 -35.215,3.109 -7.909,6.916 -7.709,11.881 -9.635,18.945 -1.925,7.064 -5.551,11.188 -7.952,13.629 -10.405,10.561 -37.542,10.561 -37.542,10.561 -61.656,-5.137 -68.505,-59.945 -68.505,-59.945 -8.822,-70.221 57.438,-82.156 64.224,-82.1 6.666,0.05 2.57,2.25 2.57,2.25 -33.906,2.569 -51.059,25.37 -51.059,25.37 22.478,-19.588 41.032,-15.066 41.032,-15.066 17.302,3.729 21.372,-3.397 21.372,-3.397 3.73,-10.513 -4.749,-15.604 -4.749,-15.604 -17.811,-6.784 -22.868,-29.837 -22.868,-29.837 0,0 -66.792,9.42 -85.687,62.745 -9.16,22.05 0.481,40.871 0.481,40.871 11.529,27.62 -11.987,27.186 -11.987,27.186 z m 22.132,-70.987 c 0,0 21.836,-37.576 70.988,-49.166 0.648,2.619 2.572,4.773 2.572,4.773 0,0 -39.238,6.675 -73.56,44.393 z m -15.006,77.97 c 0,0 23.31,38.908 31.402,45.213 0.001,-10e-4 -23.267,-13.407 -31.402,-45.213 z"
       style="fill:#ea5504" /><path
       id="path7"
       d="m 297.976,395.799 c 4.817,-0.59 12.126,1.443 17.035,5.289 5.392,4.225 8.081,11.248 5.093,19.658 -5.712,16.08 -29.459,13.227 -31.594,0.482 -1.758,-10.506 5.539,-16.492 14.297,-12.861 4.185,1.734 5.804,6.281 4.709,9.42 -1.196,3.432 -5.548,6.676 -5.548,6.676 5.762,0.391 8.833,-2.803 10.259,-5.18 2.945,-4.908 -1.124,-11.291 -3.211,-12.201 -19.27,-10.92 -26.513,11.539 -26.513,11.539 -28.188,0.277 -49.142,-11.055 -49.142,-11.055 0,0 14.217,2.473 30.914,-0.504 16.695,-2.98 23.546,-10.044 33.701,-11.263 z"
       style="fill:#ea5504" /><path
       id="path9"
       d="m 175.934,306.229 c 0,0 4.573,4.35 1.957,8.803 0,0 -2.869,3.734 -7.195,0.105 0,0 4.986,9.186 10.058,-1.111 0,0 2.839,-8.871 -7.422,-11.547 0,0 1.182,-22.759 6.158,-26.912 0,0 -1.374,13.501 2.353,21.838 3.727,8.343 8.144,19.335 -0.516,25.585 0,0 -11.919,4.98 -15.132,-7.391 -0.002,0.001 -2.25,-11.919 9.739,-9.37 z"
       style="fill:#ea5504" /><path
       id="path11"
       d="m 241.034,200.206 c -10.374,7.879 -25.511,6.105 -26.536,-5.496 0,0 -0.644,-7.603 4.708,-10.596 4.098,-2.295 9.871,-0.896 10.632,-0.531 1.678,0.795 6.201,3.611 4.822,8.062 -1.378,4.456 -5.017,4.672 -6.943,4.191 -2.353,-0.591 -3.802,-3.324 -2.968,-5.809 0,0 0.119,-0.833 -0.244,-1.21 -0.365,-0.375 -1.209,-0.292 -1.339,-0.104 -0.947,1.369 -2.651,5.091 0.963,8.243 0,0 4.691,4.262 16.903,-1.843 0,0 10.854,-5.429 26.121,-1.016 0.002,0.002 -15.743,-1.779 -26.119,6.109 z"
       style="fill:#ea5504" /><path
       id="path13"
       d="m 235.2,193.91 c 0,0 4.001,-4.516 -1.027,-9.135 0,0 15.15,0.092 27.105,6.857 0,0 -16.742,-4.083 -26.078,2.278 z"
       style="fill:#ea5504" /><path
       id="path15"
       d="m 292.042,220.459 c 0,0 -12.461,-5.252 -16.532,-30.357 0,0 6.355,19.163 24.675,22.554 0,0 2.514,0.787 5.298,0.89 2.783,0.111 4.601,-0.425 4.601,-0.425 0,0 6.244,0.819 9.637,7.603 0,0 0.93,2.08 -0.43,5.139 0,0 5.317,0.023 8.711,2.735 3.392,2.717 6.729,8.258 11.532,11.537 4.806,3.278 14.93,8.82 28.158,5.77 0,0 6.445,-1.362 5.429,6.101 0,0 -0.341,8.143 -16.961,11.537 0,0 11.193,-5.77 0.338,-9.839 -10.854,-4.07 -28.496,-12.213 -41.049,-5.091 0,0 -14.586,7.128 -25.441,1.364 0,0 20.352,-2.72 15.944,-17.983 -10e-4,0 -2.375,-7.463 -13.91,-11.535 z"
       style="fill:#ea5504" /><path
       id="path17"
       d="m 388.047,212.997 c -2.339,-2.096 -14.587,-7.805 -15.605,9.834 0,0 -15.259,8.272 -25.96,-0.609 -6.833,-5.671 -11.347,-4.067 -9.957,-11.67 0,0 0.312,-0.038 0.821,-0.085 -0.044,0.237 -0.071,0.479 -0.071,0.729 0,2.186 1.773,3.959 3.962,3.959 2.185,0 3.961,-1.773 3.961,-3.959 0,-0.232 -0.032,-0.456 -0.069,-0.676 1.967,0.267 3.81,0.795 4.924,1.799 0,0 -2.288,0.27 -3.143,2.836 -0.442,1.33 0.287,3.333 1.785,4.626 3.634,3.126 19.675,3.731 18.658,-9.501 0,0 0.267,-7.033 -7.806,-7.798 -8.067,-0.766 -14.421,4.021 -17.295,0.925 -2.875,-3.094 -2.408,-7.787 -5.938,-11.479 -1.54,-1.606 -2.895,-3.133 -5.816,-4.392 -3.465,-1.486 -3.979,-4.439 -3.979,-4.439 0,0 -1.284,3.853 0.814,5.944 3.418,3.402 2.948,11.18 -3.062,11.403 0,0 -4.621,-0.265 -5.298,-13.495 0,0 -4.497,-18.626 -13.489,-15.093 -3.216,1.263 -2.248,7.387 2.167,12.984 3.922,4.975 -1.044,11.744 -8.144,9.501 -7.103,-2.245 -10.131,-14.624 -12.648,-19.112 -3.695,-6.584 -9.101,-12.464 -12.688,-9.476 -2.889,2.409 -3.227,7.771 3.373,18.788 4.071,6.791 6.428,13.175 13.481,18.958 6.646,5.447 12.638,5.986 17.301,5.427 5.815,-0.697 13.23,3.731 16.623,12.211 0,0 6.444,3.395 11.535,8.141 5.086,4.752 18.453,12.425 38.67,7.803 21.447,-4.899 16.497,-20.852 12.893,-24.084 z"
       style="fill:#ea5504" /><path
       id="path19"
       d="M 268.125,303.889"
       style="fill:#ea5504" /><path
       id="path21"
       d="m 350.332,323.746 c 0,0 8.188,-11.717 19.107,-13.004 4.339,-0.51 7.633,0.221 10.195,0.08 2.372,-0.135 4.093,-1.094 6.022,-2.41 0,0 -0.884,3.133 -4.495,4.816 -2.188,1.021 -4.176,-0.318 -4.978,1.77 -0.806,2.084 0.611,3.438 3.05,3.934 3.34,0.68 6.404,-3.326 7.707,-6.021 3.371,-6.986 12.201,-6.102 18.302,-3.453 0,0 -5.995,-0.596 -8.669,1.686 -1.669,1.43 -2.891,3.693 -1.443,6.424 1.775,3.357 1.049,6.883 0.312,8.947 -0.396,1.119 -0.916,1.086 -0.916,1.691 0,0.6 0.505,0.916 1.123,0.68 1.929,-0.723 0.722,-2.766 1.284,-4.457 0.81,-2.42 2.45,-3.41 4.777,-3.09 0,0 -2.045,0.062 -2.85,2.287 -0.468,1.291 -0.161,3.723 0.28,6.223 1.524,8.629 -3.211,15.738 -5.137,18.465 0.964,-11.88 -12.36,-35.002 -43.671,-24.568 z"
       style="fill:#ea5504" /></g></svg>